<?xml version="1.0" encoding="utf-8"?>
<!-- Generator: Adobe Illustrator 22.0.1, SVG Export Plug-In . SVG Version: 6.00 Build 0)  -->
<svg version="1.1" id="Calque_1" xmlns="http://www.w3.org/2000/svg" xmlns:xlink="http://www.w3.org/1999/xlink" x="0px" y="0px"
	 viewBox="0 0 50 50" style="enable-background:new 0 0 50 50;" xml:space="preserve">
<style type="text/css">
	.st0{fill:#FF0000;}
	.st1{fill:#ADACAC;stroke:#ADACAC;stroke-width:3;stroke-miterlimit:10;}
</style>
<path class="st0" d="M16,0.5c-7.6,0-14,6.3-14,14c0,7,5.2,12.8,11.9,13.8v19.9h3.9v-20c6.8-1,11.9-6.8,11.9-13.8
	C29.9,6.8,23.7,0.5,16,0.5z M12,12.5c-2.1,0-3.9-1.8-3.9-3.9S9.9,4.6,12,4.6S16,6.4,16,8.5S14.2,12.5,12,12.5z"/>
<polygon class="st1" points="47.3,19.7 34.7,19.7 34.7,7.1 29.9,7.1 29.9,19.7 17.4,19.7 17.4,24.4 29.9,24.4 29.9,37 34.7,37 
	34.7,24.4 47.3,24.4 "/>
</svg>
