<svg version="1.1" id="Capa_1" xmlns="http://www.w3.org/2000/svg" xmlns:xlink="http://www.w3.org/1999/xlink" x="0px" y="0px"
	 viewBox="0 0 30 51" style="enable-background:new 0 0 30 51;" xml:space="preserve">
<style type="text/css">
	/* .st0{fill:#686868;}
	.st1{fill:#FFFFFF;} */
</style>
<!--  Put the style INLINE for easy access and change ...  -->
<title>roundpin</title>
<path class="st0" id="st0Id" style = "fill:#686868;" d="M15,0.8C6.9,0.8,0.3,7.4,0.3,15.5c0,7.4,5.5,13.4,12.6,14.5v21h4.2V29.9c7.1-1,12.6-7.1,12.6-14.5
	C29.7,7.4,23.1,0.8,15,0.8z M10.8,13.4c-2.3,0-4.2-1.9-4.2-4.2C6.6,6.9,8.5,5,10.8,5S15,6.9,15,9.2S13.1,13.4,10.8,13.4z"/>
<path class="st1" id="st1Id" style = "fill:#FFFFFF;" d="M15,9.2c0,2.3-1.9,4.2-4.2,4.2s-4.2-1.9-4.2-4.2C6.6,6.9,8.5,5,10.8,5S15,6.9,15,9.2z"/>
</svg>
