<?xml version="1.0" encoding="utf-8"?>
<!-- Generator: Adobe Illustrator 22.0.1, SVG Export Plug-In . SVG Version: 6.00 Build 0)  -->
<svg version="1.1" id="Calque_1" xmlns="http://www.w3.org/2000/svg" xmlns:xlink="http://www.w3.org/1999/xlink" x="0px" y="0px"
	 viewBox="0 0 50 50" style="enable-background:new 0 0 50 50;" xml:space="preserve">
<style type="text/css">
	.st0{fill:#ADACAC;}
	.st1{fill:#ADACAC;stroke:#ADACAC;stroke-width:0.4549;stroke-miterlimit:10;}
	.st2{fill:#FF0000;}
</style>
<g>
	<g>
		<path class="st0" d="M34,23.4c-0.6,0.7-1.3,1.2-2,1.7c-0.9,0.5-2,0.9-3.1,1.1c-0.5,0.1-1,0.1-1.6,0.1h-0.3c-0.7,0-1.3-0.1-1.9-0.2
			c-1.1-0.2-2.1-0.6-3-1.2c-0.7-0.4-1.3-0.9-1.9-1.6c-3.7-4.1-3.1-11.2-3-11.9c0.2-5.1,2.7-7.6,4.7-8.7c2-1.1,4.1-1.3,5.1-1.3h0.2
			c1.9,0,3.7,0.5,5.1,1.3c2,1.1,4.4,3.6,4.6,8.7C37,12.2,37.6,19.3,34,23.4z"/>
		<path class="st1" d="M46.7,38.1L46.7,38.1c0-0.1,0-0.2,0-0.3c-0.1-1.9-0.2-6.3-4.3-7.7c0,0-0.1,0-0.1,0c-2.3-0.6-5.7-2.4-8.4-3.9
			c-0.3,0.2-0.6,0.4-0.9,0.6c-1.1,0.7-2.4,1.1-3.8,1.4c-0.6,0.1-1.2,0.1-1.9,0.2l-0.3,0c-0.7,0-1.5-0.1-2.2-0.2
			c-1.3-0.3-2.6-0.7-3.6-1.4c-0.3-0.2-0.5-0.4-0.8-0.6c-2.6,1.5-5.9,3.4-8.3,4c0,0-0.1,0-0.1,0c-4.1,1.4-4.3,5.8-4.3,7.7
			c0,0.1,0,0.2,0,0.2v0c0,0.5,0,3,0.5,4.3c0.1,0.2,0.3,0.5,0.5,0.6c0.3,0.2,7.1,4.6,18.6,4.6c11.5,0,18.4-4.4,18.6-4.6
			c0.2-0.2,0.4-0.4,0.5-0.6C46.7,41.2,46.7,38.6,46.7,38.1z"/>
	</g>
</g>
<path class="st2" d="M12.5,13.9c-5.8,0-10.6,4.8-10.6,10.6c0,5.3,4,9.6,9.1,10.4V50h3V34.8c5.1-0.7,9.1-5.1,9.1-10.4
	C23,18.6,18.3,13.9,12.5,13.9z M9.4,22.9c-1.7,0-3-1.4-3-3c0-1.7,1.4-3,3-3s3,1.4,3,3C12.5,21.6,11.1,22.9,9.4,22.9z"/>
</svg>
