<svg xmlns="http://www.w3.org/2000/svg" viewBox="0 0 110.38 197.73"><defs><style>.cls-1{fill:#13ac7c;}.cls-2{fill:#892d87;}</style></defs><title>body</title><g id="Calque_2" data-name="Calque 2"><g id="Corps"><path class="cls-1" d="M80.64,14.77V5.31A5.31,5.31,0,0,0,75.33,0h-40a5.31,5.31,0,0,0-5.31,5.31v9.42A34.25,34.25,0,0,0,0,48.61V154.05a34.19,34.19,0,0,0,34.1,34.1H78.55a31.93,31.93,0,0,0,31.83-31.83V48.61A34.26,34.26,0,0,0,80.64,14.77Z"/><path class="cls-2" d="M.15,155.83a45.55,45.55,0,0,0,45.26,41.9H65a45.56,45.56,0,0,0,45.26-41.9Z"/></g></g></svg>