<?xml version="1.0" encoding="utf-8"?>
<!-- Generator: Adobe Illustrator 22.0.1, SVG Export Plug-In . SVG Version: 6.00 Build 0)  -->
<svg version="1.1" xmlns="http://www.w3.org/2000/svg" xmlns:xlink="http://www.w3.org/1999/xlink" x="0px" y="0px"
	 viewBox="0 0 14.2 14.2" style="enable-background:new 0 0 14.2 14.2;" xml:space="preserve">
<style type="text/css">
	.st0{display:none;}
	.st1{display:inline;fill:#E9A168;}
	.st2{display:inline;fill:#00A36E;}
	.st3{display:inline;fill:#13AC7C;}
	.st4{display:inline;fill:#892D87;}
	.st5{display:inline;}
	.st6{fill:#892D87;}
	.st7{display:inline;fill:#F8BC8C;}
	.st8{display:inline;fill:#FFFFFF;}
	.st9{display:inline;fill:#CB804D;}
	.st10{display:inline;fill:#4DB58B;}
	.st11{fill:#00A36E;}
</style>
<g id="Cou" class="st0">
	<path class="st1" d="M-7.2,129.3h-18.4c-5.6,0-10.1-4.5-10.1-10.1V87.8c0-5.6,4.5-10.1,10.1-10.1h18.4C-1.6,77.6,3,82.2,3,87.8
		v31.4C3,124.8-1.6,129.3-7.2,129.3z"/>
</g>
<g id="Avant-bras_gauche" class="st0">
	<path class="st2" d="M-55.1,312.1H-89l0-83.1c0-9.5,7-17.3,15.6-17.3h2.8c8.6,0,15.6,7.8,15.6,17.3
		C-55.1,272-55.1,312.1-55.1,312.1z"/>
</g>
<g id="Epaule_gauche" class="st0">
	<path class="st2" d="M-72,245.3L-72,245.3c-9.3,0-17-7.6-17-17v-84.4c0-9.3,7.6-17,17-17h0c9.3,0,17,7.6,17,17v84.4
		C-55,237.7-62.7,245.3-72,245.3z"/>
</g>
<g id="Avant-bras_droit" class="st0">
	<path class="st2" d="M54.5,312.1H22.9l0-83.1c0-9.5,6.5-17.3,14.5-17.3H40c8,0,14.5,7.8,14.5,17.3C54.5,272,54.5,312.1,54.5,312.1z
		"/>
</g>
<g id="Epaule_droite" class="st0">
	<path class="st2" d="M38.7,245.3L38.7,245.3c-8.7,0-15.8-7.1-15.8-15.8v-86.8c0-8.7,7.1-15.8,15.8-15.8h0c8.7,0,15.8,7.1,15.8,15.8
		v86.8C54.5,238.2,47.4,245.3,38.7,245.3z"/>
</g>
<g id="Corps" class="st0">
	<path class="st3" d="M9.2,112.3v-9.5c0-2.9-2.4-5.3-5.3-5.3h-40c-2.9,0-5.3,2.4-5.3,5.3v9.4c-16.9,2-30.1,16.5-30.1,33.9v105.4
		c0,18.8,15.3,34.1,34.1,34.1H7.1c17.5,0,31.8-14.3,31.8-31.8V146.2C38.9,128.9,25.9,114.5,9.2,112.3z"/>
	<path class="st4" d="M-71.3,253.4c1.8,23.4,21.5,41.9,45.3,41.9h19.6c23.8,0,43.5-18.6,45.3-41.9H-71.3z"/>
</g>
<g id="Cuisse_gauche" class="st0">
	<path class="st4" d="M-60.9,278.3h34.1V400c0,5.7-4.6,10.3-10.3,10.3h-13c-5.9,0-10.7-4.8-10.7-10.7V278.3z"/>
</g>
<g id="Cuisse_droite" class="st0">
	<path class="st4" d="M-4.8,278.3h34.1V400c0,5.7-4.6,10.3-10.3,10.3h-13c-5.9,0-10.7-4.8-10.7-10.7V278.3z"/>
</g>
<g id="Pied_gauche" class="st0">
	<g class="st5">
		<path class="st6" d="M-26.8,536.1h-34.1l0-149.8c0-5.9,4.8-10.7,10.7-10.7h13c5.7,0,10.3,4.6,10.3,10.3L-26.8,536.1z"/>
	</g>
	<path class="st2" d="M-26.8,506.1h-34.1v28.5l-11.4,0c-16.6,0-25.6,14-25.6,24.5l71.1-0.1L-26.8,506.1z"/>
</g>
<g id="Pied_droit" class="st0">
	<path class="st4" d="M29.3,536.1H-4.8l0-149.8c0-5.9,4.8-10.7,10.7-10.7h13c5.7,0,10.3,4.6,10.3,10.3L29.3,536.1z"/>
	<path class="st2" d="M66.2,559.1c0-10.5-9.1-24.5-25.6-24.5l-11.3,0v-28.5H-4.8l0,52.8L66.2,559.1z"/>
</g>
<g id="Main_gauche" class="st0">
	<path class="st4" d="M-80.9,312.1l-0.2,28.1c0,6.5,6.4,11.9,13.9,11.9h3.5v-40H-80.9z"/>
</g>
<g id="Main_droite" class="st0">
	<path class="st4" d="M49.5,312.1l0.3,28.1c0,6.5-6.8,11.9-14.8,11.9h-3.8v-40H49.5z"/>
</g>
<g id="Visage" class="st0">
	<circle class="st1" cx="49.8" cy="16" r="15.4"/>
	<circle class="st1" cx="-80" cy="16" r="15.4"/>
	<path id="XMLID_12_" class="st7" d="M-18.4,93.5c-34.5,0-62.7-28.2-62.7-62.7V-6.6c0-34.5,28.2-62.7,62.7-62.7h5.4
		c34.5,0,62.7,28.2,62.7,62.7v37.4c0,34.5-28.2,62.7-62.7,62.7"/>
	<path class="st4" d="M-12-49.7c-2.5,7.9-7.2,15.9-13.4,23.1C-39.5-10.3-61.5,1.8-84-0.4C-80.1-32.2-41.2-59.6-12-49.7z"/>
	<path class="st4" d="M-19.6-51.3c7.9,26.1,39,53.1,71.7,50.5C48.7-32.7,12.6-59.9-19.6-51.3z"/>
	<path class="st8" d="M-15.2,57.1c7.6,0,13.7-6.2,13.7-13.7H-29C-29,51-22.8,57.1-15.2,57.1z"/>
	<circle class="st9" cx="17.3" cy="22.7" r="1.2"/>
	<circle class="st9" cx="18.5" cy="31.7" r="1.2"/>
	<circle class="st9" cx="7.4" cy="28.3" r="1.2"/>
	<circle class="st9" cx="27.6" cy="25.4" r="1.2"/>
	<circle class="st9" cx="-46.5" cy="22.5" r="1.2"/>
	<circle class="st9" cx="-47.7" cy="31.6" r="1.2"/>
	<circle class="st9" cx="-36.6" cy="28.2" r="1.2"/>
	<circle class="st9" cx="-56.8" cy="25.2" r="1.2"/>
	<path class="st1" d="M-15.1,3.2L-15.1,3.2c7.2,0,13,5.8,13,13v7.2c0,7.2-5.8,13-13,13l0,0c-7.2,0-13-5.8-13-13v-7.2
		C-28.1,9-22.3,3.2-15.1,3.2z"/>
	<ellipse class="st10" cx="-15.6" cy="-95.6" rx="20.4" ry="20.7"/>
	<g class="st5">
		<path class="st11" d="M44.2-13.5c-1.9-0.3-3.8-0.5-5.7-0.7c-1.9-0.2-3.7-0.4-5.5-0.6c-1.8-0.2-3.6-0.4-5.3-0.5
			c-1.7-0.2-3.4-0.3-5.1-0.5c-1.7-0.1-3.3-0.3-5-0.4c-1.6-0.1-3.2-0.2-4.8-0.3c-1.6-0.1-3.2-0.2-4.7-0.3S5.1-17,3.6-17.1
			c-1.5-0.1-3-0.1-4.5-0.2c-1.5-0.1-3-0.1-4.5-0.1c-1.5,0-2.9-0.1-4.4-0.1s-2.9,0-4.4,0c-1.5,0-2.9,0-4.4,0c-1.5,0-2.9,0-4.4,0
			s-2.9,0-4.4,0.1c-1.5,0-3,0.1-4.5,0.1c-1.5,0.1-3,0.1-4.5,0.2c-1.5,0.1-3.1,0.1-4.6,0.2s-3.1,0.2-4.7,0.3s-3.2,0.2-4.8,0.3
			s-3.3,0.3-5,0.4c-1.7,0.1-3.4,0.3-5.1,0.5s-3.5,0.3-5.3,0.5c-1.8,0.2-3.6,0.4-5.5,0.6c-1.9,0.2-3.7,0.5-5.7,0.7
			c-1.5,0.2-3,0.1-4.4-0.3s-2.7-1-3.9-1.8c-1.2-0.8-2.2-1.9-2.9-3.1c-0.8-1.2-1.3-2.6-1.6-4.1c-0.1-0.8-0.2-1.2-0.3-2
			c-0.2-1.5-0.1-3,0.2-4.4c0.4-1.4,1-2.7,1.9-3.9c0.9-1.2,2-2.1,3.3-2.9c1.3-0.8,2.8-1.3,4.4-1.5c2-0.3,3.9-0.5,5.8-0.7
			c1.9-0.2,3.7-0.4,5.5-0.6s3.6-0.4,5.4-0.6c1.8-0.2,3.5-0.3,5.2-0.5c1.7-0.1,3.4-0.3,5-0.4c1.7-0.1,3.3-0.2,4.9-0.4
			c1.6-0.1,3.2-0.2,4.8-0.3c1.6-0.1,3.1-0.2,4.7-0.2s3.1-0.1,4.6-0.2c1.5-0.1,3-0.1,4.5-0.1s3-0.1,4.5-0.1c1.5,0,3,0,4.4-0.1
			c1.5,0,3,0,4.4,0s2.9,0,4.4,0c1.5,0,3,0,4.4,0.1c1.5,0,3,0.1,4.5,0.1s3,0.1,4.5,0.1c1.5,0.1,3.1,0.1,4.6,0.2s3.1,0.2,4.7,0.2
			s3.2,0.2,4.8,0.3c1.6,0.1,3.2,0.2,4.9,0.4s3.3,0.3,5,0.4c1.7,0.1,3.4,0.3,5.2,0.5c1.8,0.2,3.5,0.4,5.4,0.6
			c1.8,0.2,3.7,0.4,5.5,0.6c1.9,0.2,3.8,0.5,5.8,0.7c1.6,0.2,3.1,0.7,4.4,1.5c1.3,0.8,2.4,1.7,3.3,2.9c0.9,1.2,1.6,2.5,1.9,3.9
			s0.5,2.9,0.2,4.4c-0.1,0.8-0.2,1.2-0.3,2c-0.2,1.5-0.8,2.9-1.6,4.1s-1.8,2.3-2.9,3.1c-1.2,0.8-2.5,1.5-3.9,1.8
			S45.7-13.3,44.2-13.5z"/>
	</g>
	<path class="st2" d="M48.5-31.2H-79.3c-0.1,0-0.3-0.1-0.3-0.3v-0.9c0-31.1,25.5-56.6,56.6-56.6h15.2c31.1,0,56.6,25.5,56.6,56.6
		v0.9C48.8-31.3,48.7-31.2,48.5-31.2z"/>
</g>
<g id="Oeil">
	<circle cx="7.1" cy="7.1" r="7.1"/>
</g>
</svg>
