<svg xmlns="http://www.w3.org/2000/svg" viewBox="0 0 160.67 245.67"><defs><style>.cls-1{fill:#e9a168;}.cls-2{fill:#f8bc8c;}.cls-3{fill:#892d87;}.cls-4{fill:#fff;}.cls-5{fill:#cb804d;}.cls-6{fill:#4db58b;}.cls-7{fill:#00a36e;}</style></defs><title>head</title><g id="Calque_2" data-name="Calque 2"><g id="Visage"><rect class="cls-1" x="59.77" y="193.96" width="38.65" height="51.71" rx="10.14" ry="10.14"/><circle class="cls-1" cx="145.24" cy="132.37" r="15.43"/><circle class="cls-1" cx="15.43" cy="132.37" r="15.43"/><path id="_Tracé_" data-name="&lt;Tracé&gt;" class="cls-2" d="M77.09,209.88a62.91,62.91,0,0,1-62.72-62.72V109.74A62.9,62.9,0,0,1,77.09,47h5.43a62.9,62.9,0,0,1,62.72,62.71v37.42a62.91,62.91,0,0,1-62.72,62.72"/><path class="cls-3" d="M83.47,66.6A67.56,67.56,0,0,1,70,89.72C55.91,106,33.92,118.14,11.43,116,15.37,84.13,54.24,56.69,83.47,66.6Z"/><path class="cls-3" d="M75.84,65c7.9,26.15,39,53.13,71.71,50.5C144.15,83.64,108.09,56.46,75.84,65Z"/><path class="cls-4" d="M80.21,173.47A13.74,13.74,0,0,0,94,159.73H66.47A13.74,13.74,0,0,0,80.21,173.47Z"/><circle class="cls-5" cx="112.75" cy="138.99" r="1.23"/><circle class="cls-5" cx="113.98" cy="148.08" r="1.23"/><circle class="cls-5" cx="102.9" cy="144.64" r="1.23"/><circle class="cls-5" cx="123.09" cy="141.71" r="1.23"/><circle class="cls-5" cx="48.96" cy="138.86" r="1.23"/><circle class="cls-5" cx="47.73" cy="147.95" r="1.23"/><circle class="cls-5" cx="58.81" cy="144.51" r="1.23"/><circle class="cls-5" cx="38.62" cy="141.58" r="1.23"/><path class="cls-1" d="M80.33,119.56h0a13,13,0,0,1,13,13v7.15a13,13,0,0,1-13,13h0a13,13,0,0,1-13-13v-7.15A13,13,0,0,1,80.33,119.56Z"/><ellipse class="cls-6" cx="79.89" cy="20.69" rx="20.35" ry="20.69"/><path class="cls-7" d="M139.64,102.82q-2.89-.39-5.68-.72l-5.47-.63-5.28-.54c-1.73-.17-3.44-.32-5.11-.47l-5-.39c-1.62-.12-3.23-.24-4.81-.34l-4.7-.27c-1.55-.09-3.08-.16-4.6-.23l-4.52-.17-4.45-.13c-1.48,0-2.94-.06-4.41-.08s-2.92,0-4.38,0H76.9c-1.45,0-2.91,0-4.37,0s-2.94,0-4.41.08l-4.45.13-4.52.17c-1.52.07-3,.14-4.6.23l-4.7.27c-1.58.1-3.19.22-4.81.34l-5,.39c-1.68.15-3.38.3-5.11.47l-5.28.54-5.47.63q-2.79.33-5.68.72a11.4,11.4,0,0,1-4.41-.27,11.7,11.7,0,0,1-3.87-1.84A11.58,11.58,0,0,1,7.33,97.6a10.91,10.91,0,0,1-1.55-4.12l-.32-2a10.43,10.43,0,0,1,.23-4.39,10.87,10.87,0,0,1,1.93-3.86A11.64,11.64,0,0,1,11,80.32a11.78,11.78,0,0,1,4.39-1.49q2.93-.39,5.75-.73c1.89-.23,3.73-.44,5.55-.64s3.61-.39,5.37-.56l5.19-.48,5-.42,4.91-.35,4.78-.29,4.69-.24,4.59-.2,4.53-.14,4.48-.11,4.44-.06,4.43,0,4.43,0,4.44.06,4.48.11,4.53.14,4.59.2,4.69.24,4.78.29,4.91.35,5,.42,5.19.48c1.76.17,3.55.36,5.37.56s3.66.41,5.55.64,3.8.47,5.75.73a11.7,11.7,0,0,1,7.72,4.39,11,11,0,0,1,1.93,3.86,10.43,10.43,0,0,1,.23,4.39c-.13.81-.19,1.21-.32,2a10.91,10.91,0,0,1-1.55,4.12,11.58,11.58,0,0,1-2.93,3.11,11.7,11.7,0,0,1-3.87,1.84A11.42,11.42,0,0,1,139.64,102.82Z"/><path class="cls-7" d="M72.46,27.44H87.69A56.58,56.58,0,0,1,144.26,84v.86a.26.26,0,0,1-.26.26H16.14a.26.26,0,0,1-.26-.26V84A56.58,56.58,0,0,1,72.46,27.44Z"/></g></g></svg>