<svg xmlns="http://www.w3.org/2000/svg" viewBox="0 0 71.09 280.79"><defs><style>.cls-1{fill:#892d87;}.cls-2{fill:#00a36e;}</style></defs><title>leftleg</title><g id="Calque_2" data-name="Calque 2"><g id="Pied_gauche" data-name="Pied gauche"><path class="cls-1" d="M47.76,97.32h13a10.3,10.3,0,0,1,10.3,10.3V257.81a0,0,0,0,1,0,0H37a0,0,0,0,1,0,0V108.06A10.74,10.74,0,0,1,47.76,97.32Z"/><path class="cls-2" d="M71.09,227.81H37v28.52l-11.38,0C9.08,256.3,0,270.3,0,280.79l71.08-.14Z"/><path class="cls-1" d="M47.32,0h13A10.74,10.74,0,0,1,71.09,10.74V132a0,0,0,0,1,0,0H37a0,0,0,0,1,0,0V10.3A10.3,10.3,0,0,1,47.32,0Z" transform="translate(108.1 131.96) rotate(180)"/></g></g></svg>