<svg xmlns="http://www.w3.org/2000/svg" viewBox="0 0 71.01 280.79"><defs><style>.cls-1{fill:#892d87;}.cls-2{fill:#00a36e;}</style></defs><title>rightleg</title><g id="Calque_2" data-name="Calque 2"><g id="Pied_droit" data-name="Pied droit"><path class="cls-1" d="M10.74,97.32h13a10.3,10.3,0,0,1,10.3,10.3V257.81a0,0,0,0,1,0,0H0a0,0,0,0,1,0,0V108.06A10.74,10.74,0,0,1,10.74,97.32Z"/><path class="cls-1" d="M10.3,0h13A10.74,10.74,0,0,1,34.08,10.74V132a0,0,0,0,1,0,0H0a0,0,0,0,1,0,0V10.3A10.3,10.3,0,0,1,10.3,0Z" transform="translate(34.08 131.96) rotate(180)"/><path class="cls-2" d="M71,280.79c0-10.49-9.08-24.49-25.63-24.49l-11.3,0V227.81H0l.05,52.84Z"/></g></g></svg>