<svg id="Calque_1" data-name="Calque 1" xmlns="http://www.w3.org/2000/svg" viewBox="0 0 138.38 10.59"><defs><style>.cls-1{fill:#e42320;}</style></defs><title>logo</title><path class="cls-1" d="M13.28,11V.73H16.6a12.3,12.3,0,0,1,2.46.15,2.68,2.68,0,0,1,1.47,1,3.16,3.16,0,0,1,.6,2,3.34,3.34,0,0,1-.35,1.59,2.7,2.7,0,0,1-.87,1A2.91,2.91,0,0,1,18.84,7a11.51,11.51,0,0,1-2.14.15H15.35V11Zm2.07-8.5v2.9h1.13a5.3,5.3,0,0,0,1.64-.16,1.34,1.34,0,0,0,.64-.5A1.35,1.35,0,0,0,19,3.9,1.31,1.31,0,0,0,18.67,3a1.45,1.45,0,0,0-.83-.45,9.57,9.57,0,0,0-1.49-.07Z" transform="translate(-0.82 -0.55)"/><path class="cls-1" d="M23.05,11V.73h2.06V11Z" transform="translate(-0.82 -0.55)"/><path class="cls-1" d="M27.39,11V.73h2l4.19,6.83V.73h1.92V11H33.44L29.31,4.29V11Z" transform="translate(-0.82 -0.55)"/><path class="cls-1" d="M42.25,11V.73h7V2.46h-5V4.88H48.6V6.61H44.32V11Z" transform="translate(-0.82 -0.55)"/><path class="cls-1" d="M50.84,5.91a6.58,6.58,0,0,1,.47-2.63,4.75,4.75,0,0,1,.95-1.4A4,4,0,0,1,53.59,1a5.6,5.6,0,0,1,2.2-.41A4.81,4.81,0,0,1,59.41,2a5.38,5.38,0,0,1,1.36,3.91,5.41,5.41,0,0,1-1.34,3.88,5.38,5.38,0,0,1-7.24,0A5.26,5.26,0,0,1,50.84,5.91ZM53,5.84a3.78,3.78,0,0,0,.81,2.63,2.75,2.75,0,0,0,4.06,0,3.89,3.89,0,0,0,.8-2.67,3.84,3.84,0,0,0-.78-2.63,2.86,2.86,0,0,0-4.1,0A3.85,3.85,0,0,0,53,5.84Z" transform="translate(-0.82 -0.55)"/><path class="cls-1" d="M62.68,11V.73H67A7.56,7.56,0,0,1,69.41,1a2.39,2.39,0,0,1,1.2,1,3,3,0,0,1,.44,1.61,2.73,2.73,0,0,1-.67,1.91,3.28,3.28,0,0,1-2,.94,5.08,5.08,0,0,1,1.11.86A12,12,0,0,1,70.63,9l1.25,2H69.41L67.92,8.73a16.13,16.13,0,0,0-1.09-1.5,1.62,1.62,0,0,0-.62-.43,3.71,3.71,0,0,0-1-.11h-.42V11Zm2.07-5.9h1.53a7.91,7.91,0,0,0,1.85-.13,1.1,1.1,0,0,0,.58-.43,1.34,1.34,0,0,0,.21-.77,1.26,1.26,0,0,0-.27-.84,1.33,1.33,0,0,0-.78-.4c-.17,0-.67,0-1.51,0H64.75Z" transform="translate(-0.82 -0.55)"/><path class="cls-1" d="M84.1,7.2l2,.63a4.52,4.52,0,0,1-1.53,2.49,4.34,4.34,0,0,1-2.72.82,4.39,4.39,0,0,1-3.35-1.4,5.29,5.29,0,0,1-1.32-3.8A5.58,5.58,0,0,1,78.5,2,4.51,4.51,0,0,1,82,.55a4.24,4.24,0,0,1,3,1.11,4,4,0,0,1,1,1.89L84,4a2.23,2.23,0,0,0-.76-1.26,2.16,2.16,0,0,0-1.4-.46A2.32,2.32,0,0,0,80,3.14a4,4,0,0,0-.71,2.64A4.35,4.35,0,0,0,80,8.55a2.27,2.27,0,0,0,1.82.82,2.05,2.05,0,0,0,1.41-.52A3.08,3.08,0,0,0,84.1,7.2Z" transform="translate(-0.82 -0.55)"/><path class="cls-1" d="M88.17,11V.73h2.06v4h4v-4h2.07V11H94.28V6.49h-4V11Z" transform="translate(-0.82 -0.55)"/><path class="cls-1" d="M108,11h-2.25l-.9-2.32h-4.09L99.93,11h-2.2l4-10.23h2.19ZM104.2,6.91l-1.41-3.8-1.38,3.8Z" transform="translate(-0.82 -0.55)"/><path class="cls-1" d="M109.41,11V.73h2l4.19,6.83V.73h1.92V11h-2.07l-4.13-6.67V11Z" transform="translate(-0.82 -0.55)"/><path class="cls-1" d="M124.76,7.2V5.47h4.46V9.55a5.59,5.59,0,0,1-1.88,1.11,6.85,6.85,0,0,1-2.5.48,5.61,5.61,0,0,1-2.8-.68,4.32,4.32,0,0,1-1.79-1.92,6.27,6.27,0,0,1-.6-2.73A5.84,5.84,0,0,1,120.32,3a4.47,4.47,0,0,1,2-1.91,5.29,5.29,0,0,1,2.45-.51,4.93,4.93,0,0,1,3,.8,3.65,3.65,0,0,1,1.38,2.21L127,4a2.13,2.13,0,0,0-.81-1.2,2.46,2.46,0,0,0-1.49-.43,2.8,2.8,0,0,0-2.15.86,3.58,3.58,0,0,0-.8,2.55,4,4,0,0,0,.81,2.73,2.68,2.68,0,0,0,2.12.91,3.53,3.53,0,0,0,1.3-.25,4.41,4.41,0,0,0,1.12-.62V7.2Z" transform="translate(-0.82 -0.55)"/><path class="cls-1" d="M131.41,11V.73H139V2.46h-5.52V4.73h5.14V6.45h-5.14V9.24h5.72V11Z" transform="translate(-0.82 -0.55)"/><path class="cls-1" d="M4.24.55a3.42,3.42,0,0,0-.49,6.8v3.79h1V7.35A3.42,3.42,0,0,0,4.24.55Zm-1,2.94a1,1,0,1,1,1-1A1,1,0,0,1,3.26,3.49Z" transform="translate(-0.82 -0.55)"/></svg>