<?xml version="1.0" encoding="utf-8"?>
<!-- Generator: Adobe Illustrator 22.0.1, SVG Export Plug-In . SVG Version: 6.00 Build 0)  -->
<svg version="1.1" id="Calque_1" xmlns="http://www.w3.org/2000/svg" xmlns:xlink="http://www.w3.org/1999/xlink" x="0px" y="0px"
	 viewBox="0 0 318.4 310.9" style="enable-background:new 0 0 318.4 310.9;" xml:space="preserve">
<style type="text/css">
	.st0{fill:#F20000;}
</style>
<g>
	<g>
		<path class="st0" d="M76.9,24.1c-0.7,0.2-1.4,0.4-1.9,0.8c-1.2,0.8-1.5,1.9-0.4,3.6l0.6,1l3-1.9l2.5,3.8l-3,1.9l8.1,12.7l-4.9,3.1
			l-8.1-12.7l-2.2,1.4l-2.3-3.6l2.1-1.6l-0.6-0.9c-2.2-3.5-2.4-7.4,2-10.3c1.4-0.9,2.8-1.3,3.7-1.5L76.9,24.1z"/>
		<path class="st0" d="M76.9,21.6c-0.8-1.6-0.2-3.3,1.5-4.3c1.7-0.9,3.5-0.5,4.4,1.1c0.8,1.6,0.2,3.3-1.5,4.3
			C79.6,23.6,77.7,23.2,76.9,21.6z M80.1,26.6l5.1-2.8l9.3,17.3l-5.1,2.8L80.1,26.6z"/>
		<path class="st0" d="M89.2,21.6l4.4-1.8l1.3,2.2l0.1-0.1c0.9-2.1,2.2-4.1,4.7-5.1c4-1.6,6.8,0.5,8.7,5l4.6,11.3l-5.4,2.2
			l-4.4-10.6c-1.1-2.6-2.1-3.2-3.7-2.5c-1.4,0.6-1.9,1.5-2.7,3.1l5,12.3l-5.4,2.2L89.2,21.6z"/>
		<path class="st0" d="M122,17.7c-0.5-1.7-1.7-2.5-3.7-2c-1.6,0.4-3.1,1.5-4.6,3l-2.9-3.2c2.1-2.1,4.5-3.8,7.5-4.6
			c4.9-1.2,8.3,0.9,9.7,6.7l2.8,10.9l-4.6,1.2l-0.9-1.9l-0.1,0c-1.3,1.8-2.8,3.3-5,3.8c-3.5,0.9-6.3-1.1-7.1-4.3
			C112,23.4,114.7,20.4,122,17.7z M121,26.8c1.3-0.3,2-1.2,2.7-2.4l-0.8-3.3c-3.9,1.6-4.9,3-4.6,4.5C118.6,26.8,119.6,27.2,121,26.8
			z"/>
		<path class="st0" d="M129.1,0.8l5.8-0.8l3.1,21.7c0.2,1.2,0.8,1.5,1.3,1.5c0.2,0,0.4-0.1,0.7-0.2l1.3,4.2
			c-0.6,0.4-1.5,0.7-2.8,0.9c-4,0.6-5.7-1.8-6.2-5.7L129.1,0.8z"/>
		<path class="st0" d="M153.4,28.1l-0.1,5.7l-5.8-0.1l0.3-27l4.8,0l0.4,1.9l0.2,0c1.6-1.4,3.6-2.4,5.6-2.4c4.8,0,7.7,4,7.6,10.1
			c-0.1,6.7-4.2,10.6-8.4,10.5c-1.7,0-3.3-0.8-4.7-2.1L153.4,28.1z M156.6,22.3c2,0,3.7-1.7,3.7-5.8c0-3.5-1-5.3-3.4-5.3
			c-1.2,0-2.2,0.5-3.4,1.7l-0.1,8C154.5,21.9,155.6,22.3,156.6,22.3z"/>
		<path class="st0" d="M170.1,7.5l4.7,0.6l-0.1,3.5l0.2,0c1.8-2.4,4.1-3.4,6.1-3.1c1.1,0.1,1.7,0.4,2.3,0.7l-1.6,4.9
			c-0.7-0.3-1.3-0.5-2.1-0.6c-1.5-0.2-3.4,0.5-4.8,3l-1.5,11.3l-5.8-0.8L170.1,7.5z"/>
		<path class="st0" d="M193.3,11.3c4.8,1.2,8.3,6,6.7,12.4c-1.6,6.3-7,8.8-11.8,7.6c-4.8-1.2-8.4-6-6.7-12.4
			C183,12.5,188.4,10,193.3,11.3z M189.3,26.7c2.3,0.6,4-1.2,4.9-4.5c0.9-3.3,0.2-5.7-2.1-6.3c-2.3-0.6-4,1.2-4.9,4.5
			C186.4,23.6,187,26.1,189.3,26.7z"/>
		<path class="st0" d="M205.6,15.5l5.5,2l-6.8,18.3c-1.5,4-4.3,6.8-9.3,5c-1.5-0.6-2.4-1.1-3-1.7l2.5-3.7c0.4,0.3,0.8,0.6,1.4,0.8
			c1.4,0.5,2.3-0.2,3-2.3L205.6,15.5z M207.2,9.7c0.6-1.7,2.4-2.3,4.2-1.6c1.8,0.7,2.7,2.3,2.1,4c-0.6,1.7-2.4,2.4-4.2,1.7
			S206.6,11.4,207.2,9.7z"/>
		<path class="st0" d="M222.7,22.2c5,2.5,5.7,7.3,3.4,12.2c-0.5,0.9-1,1.7-1.3,2.1l-10.6-5.2c-0.8,2.9,0.4,4.9,2.7,6.1
			c1.3,0.6,2.7,0.8,4.4,0.7l0.2,4c-2.4,0.4-5.1,0-7.2-1.1c-5.1-2.5-7.3-7.8-4.4-13.6C212.7,21.6,218.5,20.1,222.7,22.2z M222.2,31.1
			c1-2,0.8-3.9-1.3-4.9c-1.6-0.8-3.6-0.4-5.1,1.8L222.2,31.1z"/>
		<path class="st0" d="M241.1,32.8c2,1.3,3.2,3.2,3.6,5l-4.2,1.6c-0.4-1.2-0.9-2-1.7-2.5c-2.4-1.5-5-0.7-6.9,2.2
			c-1.9,2.9-1.5,5.7,0.6,7.1c1.2,0.8,2.5,0.8,3.7,0.7l-0.1,4.4c-2.5,0.4-5-0.4-6.8-1.5c-4.6-3-6.1-8.5-2.5-13.9
			C230.5,30.4,236.5,29.8,241.1,32.8z"/>
		<path class="st0" d="M245.8,42.4l-2.1-1.7l2.7-3.3l2.5,1.7l3.8-3.6l3.7,3.1l-3.3,4l3.6,3l-2.9,3.5l-3.6-3l-5,6.1
			c-1.4,1.7-1.2,3.1,0,4c0.5,0.4,1.2,0.7,1.7,0.9l-2,3.9c-1-0.4-2.4-1-3.8-2.2c-3.8-3.1-3.3-6.7-0.4-10.2L245.8,42.4z"/>
	</g>
	<g>
		<path class="st0" d="M302.7,111.1l1.1,5.1l-2.6,1l0,0.2c2.1,1.4,4,2.9,4.6,5.7c0.7,3-0.2,5.1-2.3,6.6c2.3,1.5,4.4,3.1,5,5.9
			c1,4.6-1.8,7.3-7.1,8.5l-13.1,2.9l-1.4-6.3l12.3-2.7c3.1-0.7,3.8-1.7,3.4-3.5c-0.2-1.1-1.2-2.1-2.8-3.2l-14.3,3.1l-1.4-6.3
			l12.3-2.7c3.1-0.7,3.8-1.7,3.4-3.5c-0.2-1-1.2-2.1-2.8-3.1L283,122l-1.4-6.3L302.7,111.1z"/>
		<path class="st0" d="M309.3,148.1l0.3,6.4l-21.6,1.1l-0.3-6.4L309.3,148.1z M315.8,147.2c2-0.1,3.4,1.4,3.5,3.5
			c0.1,2.2-1.2,3.8-3.1,3.9c-2,0.1-3.4-1.3-3.6-3.5C312.5,148.9,313.8,147.3,315.8,147.2z"/>
		<path class="st0" d="M294.6,159.6c-1.6,1.9-2.4,3.6-2.5,5.5c-0.1,1.9,0.6,2.8,1.7,2.8c1.4,0.1,2.2-2.1,3.2-4.3
			c1.1-2.6,3-5.6,6.6-5.4c4,0.2,6.6,3.6,6.4,8.6c-0.1,3.3-1.6,5.7-3.1,7.5l-3.7-3c1.2-1.5,2-3,2-4.5c0.1-1.7-0.5-2.5-1.6-2.5
			c-1.4-0.1-2,1.9-2.9,4.1c-1.1,2.7-2.8,5.7-6.7,5.6c-3.9-0.2-6.8-3.4-6.6-9.2c0.1-2.8,1.5-6,3.4-8.1L294.6,159.6z"/>
		<path class="st0" d="M307.5,188.2c-0.5,2.6-1.8,4.6-3.5,5.8l-3.4-3.6c1-0.9,1.6-1.8,1.8-2.8c0.5-3.1-1.5-5.4-5.2-6s-6.4,1-6.9,3.7
			c-0.3,1.5,0.2,2.9,0.9,4.1l-4.4,1.8c-1.5-2.4-1.8-5.2-1.4-7.6c1-5.9,5.9-9.8,13-8.6C305.3,176.4,308.5,182.3,307.5,188.2z"/>
		<path class="st0" d="M303.1,205.5c-1.8,5.9-7,7.5-12.6,5.7c-1.1-0.3-2-0.8-2.5-1l3.8-12.4c-3.3-0.4-5.3,1.2-6.2,4
			c-0.5,1.5-0.5,3.1,0,4.9l-4.3,0.9c-0.8-2.6-0.8-5.6-0.1-8.1c1.8-5.9,7.2-9.2,14.1-7.1C302,194.5,304.7,200.5,303.1,205.5z
			 M293.3,206.4c2.4,0.7,4.4,0.2,5.1-2.2c0.6-1.9-0.2-4-2.8-5.2L293.3,206.4z"/>
		<path class="st0" d="M306.5,221.2l-2.5,5.9l-22.1-9.6c-1.2-0.5-1.9-0.1-2.1,0.3c-0.1,0.2-0.2,0.4-0.2,0.8l-4.7-1.2
			c0-0.8,0.2-1.8,0.8-3.2c1.7-4,5-4.3,9-2.5L306.5,221.2z"/>
		<path class="st0" d="M301.5,232.1l-3,5.7l-21.4-11.2c-1.2-0.6-1.9-0.3-2.1,0.2c-0.1,0.2-0.2,0.4-0.3,0.7l-4.6-1.5
			c0.1-0.8,0.4-1.8,1-3.1c2-3.9,5.3-3.9,9.1-1.9L301.5,232.1z"/>
		<path class="st0" d="M275.3,243.7c1.7,1,3.2,0.9,4.5-1.1c1-1.5,1.4-3.5,1.6-5.9l4.8,0.5c-0.2,3.2-0.9,6.4-2.8,9.3
			c-3.1,4.6-7.4,5.4-12.9,1.7l-10.3-6.9l2.9-4.3l2.1,0.8l0.1-0.1c-0.3-2.4-0.1-4.8,1.3-6.8c2.2-3.3,6-3.7,9-1.7
			C279.4,231.7,279.4,236.1,275.3,243.7z M269.5,235.4c-0.8,1.2-0.8,2.4-0.5,4l3.1,2.1c2.1-4.1,1.8-6.1,0.4-7
			C271.4,233.7,270.3,234.2,269.5,235.4z"/>
		<path class="st0" d="M274.7,257.7l-3.6,3.8l-2.3-1.6l-0.1,0.1c0,2.5-0.3,5.2-2.3,7.3c-3.2,3.4-7,2.7-11-1l-9.8-9.2l4.4-4.7
			l9.2,8.6c2.3,2.1,3.6,2.2,4.8,0.8c1.1-1.2,1.2-2.4,1.2-4.4l-10.7-10l4.4-4.7L274.7,257.7z"/>
		<path class="st0" d="M250.6,281.6c-4.8,3.8-10,2.2-13.6-2.5c-0.7-0.9-1.2-1.8-1.5-2.3l10.2-8c-2.5-2.2-5.1-2-7.3-0.2
			c-1.3,1-2.1,2.3-2.8,4l-4.1-1.7c0.8-2.6,2.5-5.1,4.5-6.7c4.9-3.8,11.2-3.5,15.6,2.2C255.9,271.9,254.6,278.4,250.6,281.6z
			 M242,276.8c1.5,2,3.4,2.7,5.5,1.1c1.6-1.2,2.1-3.4,0.7-5.9L242,276.8z"/>
		<path class="st0" d="M231.4,294.4c-4.7,2.7-11.2,1.6-14.7-4.7c-3.5-6.3-1.2-12.4,3.6-15c4.8-2.7,11.2-1.6,14.8,4.7
			C238.6,285.6,236.2,291.7,231.4,294.4z M222.8,279.1c-2.3,1.3-2.3,4-0.4,7.3c1.8,3.3,4.2,4.7,6.5,3.4c2.3-1.3,2.3-4,0.4-7.3
			C227.5,279.3,225.1,277.8,222.8,279.1z"/>
		<path class="st0" d="M218.2,300.7l-6,2.3l-4.5-11.8c-1.1-2.9-2.2-3.5-4-2.9c-1.5,0.6-2.2,1.6-2.7,3.6l5.1,13.4l-6,2.3l-7.7-20.2
			l4.9-1.9l1.5,2.6l0.1,0c0.9-2.7,2.3-4.7,5.1-5.7c4.4-1.7,7.5,0.7,9.4,5.8L218.2,300.7z"/>
		<path class="st0" d="M190.4,294.4c-2.2-1-4.1-1.4-5.9-1c-1.9,0.4-2.5,1.3-2.3,2.4c0.3,1.4,2.6,1.6,4.9,2c2.8,0.4,6.2,1.5,6.9,5
			c0.9,3.9-1.8,7.3-6.7,8.4c-3.2,0.7-5.9-0.1-8-1.1l2-4.4c1.8,0.8,3.4,1.1,4.9,0.8c1.6-0.4,2.3-1.1,2-2.2c-0.3-1.4-2.4-1.4-4.7-1.8
			c-2.9-0.4-6.2-1.2-7.1-5.1c-0.8-3.8,1.5-7.5,7.2-8.7c2.8-0.6,6.2-0.1,8.7,1.2L190.4,294.4z"/>
	</g>
	<g>
		<path class="st0" d="M39.9,60.5c1-0.2,1.9,0.1,2.8,0.8c0.9,0.7,1.4,1.6,1.4,2.5c0,1-0.3,1.9-1.1,2.9c-0.8,1-1.7,1.5-2.6,1.7
			c-1,0.2-1.9-0.1-2.8-0.8c-0.9-0.7-1.4-1.6-1.4-2.5c0-1,0.3-1.9,1.1-2.9C38,61.2,38.9,60.7,39.9,60.5z"/>
	</g>
	<g>
		<path class="st0" d="M283.8,80c-0.2,1-0.7,1.8-1.7,2.4c-1,0.6-1.9,0.8-2.9,0.5c-0.9-0.3-1.7-0.9-2.4-2c-0.7-1-0.9-2.1-0.7-3
			c0.2-1,0.7-1.7,1.7-2.4c1-0.6,1.9-0.8,2.9-0.5c0.9,0.3,1.7,0.9,2.4,2C283.7,78.1,283.9,79.1,283.8,80z"/>
	</g>
	<g>
		<path class="st0" d="M129.2,304.1c-0.6-0.8-0.8-1.7-0.7-2.8c0.2-1.1,0.7-2,1.5-2.5c0.8-0.5,1.8-0.7,3.1-0.5
			c1.2,0.2,2.1,0.7,2.8,1.4c0.6,0.8,0.8,1.7,0.7,2.8c-0.2,1.1-0.7,2-1.5,2.5c-0.8,0.5-1.8,0.7-3.1,0.5
			C130.7,305.3,129.8,304.8,129.2,304.1z"/>
	</g>
	<g>
		<path class="st0" d="M80.2,285.7c-0.8,1.7-0.6,3.3,1.4,4.4c1.6,0.9,3.5,1.2,6,1.1l-0.1,4.8c-3.2,0.1-6.5-0.4-9.4-2.1
			c-4.8-2.7-5.9-7-2.6-12.7l6.1-10.8l4.5,2.6l-0.7,2.2l0.1,0.1c2.4-0.5,4.7-0.5,6.9,0.7c3.4,1.9,4.1,5.7,2.3,8.9
			C92.4,288.8,88.1,289.1,80.2,285.7z M88,279.2c-1.3-0.7-2.5-0.6-4-0.2l-1.9,3.3c4.3,1.7,6.2,1.3,7-0.1C89.8,281,89.3,280,88,279.2
			z"/>
		<path class="st0" d="M74.9,273.5c-0.7-2.4-1.6-4.1-3-5.2c-1.5-1.2-2.6-1.1-3.3-0.2c-0.9,1.1,0.5,3,1.7,5c1.5,2.4,2.8,5.7,0.6,8.5
			c-2.4,3.2-6.7,3.4-10.7,0.3c-2.6-2-3.7-4.6-4.4-6.8l4.6-1.3c0.6,1.9,1.3,3.3,2.5,4.2c1.3,1,2.3,1,3,0.1c0.9-1.1-0.4-2.7-1.7-4.8
			c-1.6-2.5-3.1-5.6-0.7-8.7c2.4-3.1,6.7-3.6,11.3-0.1c2.2,1.7,4.1,4.7,4.7,7.4L74.9,273.5z"/>
		<path class="st0" d="M61.6,262.9c-0.4-2.4-1.1-4.2-2.4-5.5c-1.4-1.3-2.4-1.4-3.2-0.6c-1,1,0.1,3,1.1,5.2c1.2,2.6,2.1,6-0.4,8.5
			c-2.8,2.9-7.1,2.5-10.6-1c-2.4-2.3-3.2-5-3.5-7.3l4.7-0.7c0.3,1.9,0.9,3.4,2,4.5c1.2,1.2,2.2,1.3,2.9,0.5c1-1-0.1-2.8-1.1-4.9
			c-1.3-2.6-2.4-5.9,0.4-8.7c2.8-2.8,7.1-2.8,11.2,1.3c2,2,3.5,5.2,3.8,8L61.6,262.9z"/>
		<path class="st0" d="M34.1,265.7c-1.5,1.3-3.5,0.9-4.9-0.7c-1.4-1.7-1.3-3.7,0.2-5c1.5-1.3,3.6-1,5,0.7
			C35.7,262.3,35.6,264.4,34.1,265.7z M38.8,261.1l-4.1-4.9l16.6-13.9l4.1,4.9L38.8,261.1z"/>
		<path class="st0" d="M47.9,239.2l-0.1,0.1c0,1.4-0.4,2.7-1.9,3.7c-1.3,0.9-3.2,0.8-4.7,0.2l-0.1,0.1c0,1.9-1,4.1-3.1,5.6
			c-4.3,2.9-8.9,0.8-11.5-3.1c-0.7-1-1.2-2.1-1.4-3.1l-4.4-6.6l3.9-2.6l1.9,2.9c0.3-0.7,1-1.5,2-2.2c4.1-2.8,8.1-0.9,10.8,3
			c0.4,0.7,0.8,1.5,1.1,2.4c0.7,0.2,1.2,0.2,1.8-0.2c0.9-0.6,0.9-1.6-0.5-3.6l-1.9-2.9c-3-4.4-3.2-7.8,0-9.9c3.7-2.5,9-0.4,13.2,5.7
			c2.8,4.2,3.7,8.5,0.5,10.6C51.7,240.4,49.9,240.3,47.9,239.2z M31.3,239c-1.9,1.3-2.2,3-1.3,4.4c0.9,1.4,2.6,1.8,4.5,0.5
			c2-1.3,2.3-3.1,1.4-4.5C35,238,33.3,237.7,31.3,239z M48.9,230.2c-1.6-2.4-3.7-3.5-5-2.7c-1.1,0.8-0.8,1.9,0.4,3.7l1.2,1.9
			c0.8,1.2,1.2,2,1.5,2.7c1,0.3,1.8,0.2,2.4-0.2C50.8,234.7,50.5,232.6,48.9,230.2z"/>
		<path class="st0" d="M18.7,232.6l-2.2-4.8l2.3-1.5l-0.1-0.2c-2.4-0.9-4.6-2.3-5.9-4.9c-2-4.3,0.2-7.5,5.1-9.7l12.2-5.6l2.7,5.8
			L21.5,217c-2.9,1.3-3.4,2.5-2.6,4.1c0.7,1.5,1.8,2.1,3.6,2.8l13.3-6.1l2.7,5.8L18.7,232.6z"/>
		<path class="st0" d="M8,209.1L6.8,204l2.6-1l0-0.2c-2.1-1.3-4.1-2.9-4.7-5.7c-0.7-3,0.2-5.1,2.2-6.6c-2.3-1.4-4.4-3-5-5.8
			c-1-4.6,1.7-7.3,7-8.5l13.1-3l1.4,6.3l-12.3,2.8c-3.1,0.7-3.8,1.7-3.4,3.5c0.2,1.1,1.2,2.1,2.9,3.2l14.3-3.2l1.4,6.3L14,194.7
			c-3.1,0.7-3.8,1.7-3.4,3.5c0.2,1,1.2,2.1,2.9,3.1l14.3-3.2l1.4,6.3L8,209.1z"/>
		<path class="st0" d="M0.2,162.8c-0.1-6.1,4.3-9.3,10.2-9.5c1.1,0,2.2,0.1,2.7,0.2l0.3,13c3.3-0.6,4.6-2.9,4.6-5.7
			c0-1.6-0.6-3.1-1.6-4.6l3.8-2.2c1.6,2.2,2.6,5,2.6,7.6c0.2,6.2-3.9,11-11.1,11.2C4.7,172.9,0.3,168,0.2,162.8z M9.2,158.8
			c-2.5,0.1-4.2,1.2-4.1,3.7c0,2,1.4,3.7,4.3,4.1L9.2,158.8z"/>
		<path class="st0" d="M0.7,149l0.7-5.2l2.8-0.1l0-0.2c-1.5-2-2.7-4.4-2.4-7.3c0.6-4.7,4.2-6.2,9.5-5.5l13.3,1.7l-0.8,6.4l-12.5-1.6
			c-3.1-0.4-4.2,0.3-4.4,2.1c-0.2,1.6,0.4,2.7,1.6,4.2l14.5,1.9l-0.8,6.4L0.7,149z"/>
		<path class="st0" d="M9.6,125.1L8.8,128l-4.6-1.2l0.6-3.3l-5.4-2.2l1.4-5.1l5.6,1.5l1.3-5l4.8,1.3l-1.3,5l8.4,2.2
			c2.4,0.6,3.6-0.2,4.1-1.8c0.2-0.7,0.2-1.5,0.1-2.1l4.8,0.2c0,1.2,0.1,2.8-0.5,4.8c-1.4,5.2-5.2,6.3-10,5L9.6,125.1z"/>
		<path class="st0" d="M23.3,113.8c2.1-1.3,3.5-2.7,4.2-4.4c0.7-1.8,0.4-2.8-0.7-3.2c-1.3-0.5-2.7,1.3-4.4,3c-1.9,2.1-4.7,4.3-8,3
			c-3.7-1.5-5.1-5.5-3.3-10.2c1.2-3.1,3.4-4.9,5.4-6.1L19,100c-1.6,1-2.8,2.2-3.4,3.6c-0.6,1.5-0.3,2.5,0.7,2.9
			c1.3,0.5,2.5-1.2,4.1-2.9c1.9-2.2,4.5-4.5,8.2-3.1c3.7,1.4,5.4,5.4,3.2,10.8c-1,2.6-3.4,5.2-5.8,6.6L23.3,113.8z"/>
	</g>
</g>
</svg>
