<?xml version="1.0" encoding="utf-8"?>
<!-- Generator: Adobe Illustrator 22.0.1, SVG Export Plug-In . SVG Version: 6.00 Build 0)  -->
<svg version="1.1" id="Calque_1" xmlns="http://www.w3.org/2000/svg" xmlns:xlink="http://www.w3.org/1999/xlink" x="0px" y="0px"
	 viewBox="0 0 323.6 316.9" style="enable-background:new 0 0 323.6 316.9;" xml:space="preserve">
<style type="text/css">
	.st0{fill:#F20000;}
</style>
<g>
	<g>
		<path class="st0" d="M79.1,17.9c1-0.3,1.9-0.4,2.8-0.4c0.6,0,1.1,0.2,1.6,0.4c0.5,0.3,0.9,0.6,1.2,1.1c0.5,0.8,0.6,1.6,0.3,2.4
			c-0.3,0.8-0.9,1.5-2,2.1c-1,0.6-1.9,0.8-2.8,0.7c-0.8-0.1-1.5-0.6-2-1.4c-0.3-0.6-0.4-1.2-0.3-1.9c0.1-0.7,0.5-1.3,1.1-1.9
			c-0.3,0-0.7,0.1-1.1,0.2c-0.4,0.2-0.9,0.4-1.4,0.6c-2,1.1-3,2.8-2.9,5.1c0,0.8,0.2,1.7,0.6,2.6c0.4,1,1,2.3,2,3.9l4.1-2.4
			c1.9-1.1,3.3-1.9,4.3-2.6c1-0.7,1.9-1.3,2.8-2.1l8.6,14.9c0.5,0.9,1.1,1.5,1.7,1.6c0.6,0.2,1.3,0,2.2-0.5l0.4,0.7
			c-2.5,1.3-4.1,2.2-4.9,2.6c-0.7,0.4-2.3,1.4-4.7,2.9l-0.4-0.7c0.8-0.5,1.3-1,1.4-1.5c0.1-0.5-0.1-1.3-0.6-2.2l-6.2-10.8
			c-0.6-1.1-1.2-1.7-1.9-2c-0.6-0.3-1.4-0.2-2.3,0.4l-4.1,2.4l8,13.8c0.5,0.9,1.1,1.5,1.8,1.5c0.7,0.1,1.5-0.1,2.4-0.7l0.4,0.7
			L88.2,48c-2.3,1.2-3.7,2-4.3,2.3c-0.7,0.4-2.1,1.3-4.2,2.6c-0.1,0.1-0.4,0.3-0.7,0.4l-0.4-0.7c0.9-0.5,1.4-1.1,1.6-1.6
			c0.1-0.6,0-1.3-0.6-2.2l-8-13.8L69,36.4l-0.4-0.7l2.5-1.5c-1.6-2.8-2-5.6-1.2-8.4c0.4-1.2,1.1-2.4,2.1-3.5c1-1.1,2.2-2.1,3.7-2.9
			C77,18.7,78.1,18.1,79.1,17.9z"/>
		<path class="st0" d="M109.8,16.9c0.6,0.3,1.1,0.8,1.6,1.5c0.5,0.7,0.9,1.6,1.4,2.9l3.8,10c0.4,1,0.8,1.6,1.3,1.9
			c0.5,0.2,1.2,0.2,2.1-0.1l0.3,0.8c-2.5,0.8-4.2,1.4-5,1.7c-0.7,0.3-2.3,0.9-4.8,2l-0.3-0.8c0.7-0.3,1.2-0.7,1.3-1.2
			c0.2-0.5,0-1.2-0.3-2.3l-4.3-11.5c-0.4-1-0.8-1.7-1.4-2.1c-0.5-0.4-1.2-0.4-2.1-0.1c-1,0.4-1.7,1.1-2.1,2.2
			c-0.4,1.1-0.4,2.3,0.1,3.5l3.9,10.3c0.4,1,0.8,1.7,1.2,1.9c0.4,0.3,1,0.3,1.8,0l0.3,0.8c-2.3,0.8-3.9,1.3-4.7,1.6
			c-0.7,0.3-2.4,1-5.1,2.1l-0.3-0.8c0.9-0.3,1.4-0.8,1.6-1.3c0.2-0.5,0.1-1.3-0.3-2.3l-4.4-11.7c-0.4-1.1-0.9-1.9-1.5-2.3
			c-0.5-0.4-1.3-0.4-2.1-0.1l-0.3-0.8c0.8-0.2,1.6-0.5,2.3-0.8c2.2-0.8,3.9-1.7,5.2-2.6l1.3,3.3c0.2-2.7,1.8-4.6,4.8-5.7
			C107.1,16.2,108.6,16.2,109.8,16.9z"/>
		<path class="st0" d="M120,33c-1-0.7-1.6-1.7-2-3.1c-0.3-1.2-0.2-2.2,0.3-3.1c0.4-0.9,1.1-1.6,1.8-2.2c0.8-0.6,1.8-1.3,3-2
			c1.3-0.8,2.3-1.5,2.8-2c0.6-0.5,0.8-1.2,0.6-1.9l-0.7-3c-0.2-1.1-0.7-1.9-1.3-2.4c-0.6-0.5-1.5-0.6-2.5-0.4
			c-1.2,0.3-2.1,0.8-2.6,1.5c0.8,0.1,1.4,0.4,1.9,0.8c0.5,0.4,0.8,1,1,1.7c0.2,0.9,0,1.6-0.4,2.3c-0.5,0.6-1.1,1.1-2,1.2
			c-0.9,0.2-1.7,0.1-2.3-0.4c-0.6-0.5-1-1.1-1.2-2c-0.2-0.7-0.1-1.4,0.1-2c0.2-0.6,0.7-1.2,1.3-1.8c0.6-0.6,1.4-1.1,2.4-1.5
			c1-0.5,2.1-0.8,3.3-1.1c1.3-0.3,2.4-0.4,3.4-0.3c1,0.1,1.9,0.3,2.6,0.8c0.7,0.4,1.2,1.1,1.6,1.8c0.4,0.8,0.7,1.9,1,3.3l2.3,10.5
			c0.1,0.6,0.3,1,0.5,1.3c0.2,0.2,0.4,0.3,0.8,0.2c0.4-0.1,0.8-0.4,1.3-1l0.5,0.6c-1,1.2-2.3,2-4,2.4c-1.4,0.3-2.5,0.2-3.2-0.2
			c-0.7-0.4-1.2-1.1-1.4-2.1c-0.8,2.4-2.5,3.8-5,4.4C122.4,33.9,121,33.7,120,33z M128.8,28.2l-1.7-7.9c-0.2,0.6-0.7,1.3-1.6,2.1
			c-0.9,0.9-1.5,1.7-1.9,2.4c-0.4,0.8-0.4,1.7-0.2,3c0.2,1.1,0.6,1.8,1.2,2.2c0.5,0.4,1.2,0.5,1.9,0.4
			C127.5,30.2,128.2,29.5,128.8,28.2z"/>
		<path class="st0" d="M144,26.2c0.1,1.1,0.4,1.8,0.8,2.2c0.4,0.4,1.1,0.5,2,0.4l0.1,0.8c-2.7,0.2-4.5,0.3-5.3,0.4
			c-0.9,0.1-2.7,0.3-5.4,0.8l-0.1-0.8c0.9-0.1,1.5-0.4,1.9-0.8c0.3-0.4,0.4-1.2,0.3-2.3l-2.5-22.5c-0.1-1.2-0.4-2.1-0.9-2.6
			c-0.4-0.5-1.1-0.7-2-0.6l-0.1-0.8c0.8,0,1.7-0.1,2.5-0.1c2.3-0.2,4.2-0.6,5.7-1.2L144,26.2z"/>
		<path class="st0" d="M171.8,10.1c1,0.8,1.8,2,2.3,3.5c0.5,1.5,0.7,3.3,0.6,5.5c-0.2,3.8-1.2,6.6-3,8.5c-1.8,1.9-4.1,2.8-6.9,2.6
			c-0.8,0-1.5-0.2-2.2-0.4c-0.7-0.3-1.3-0.6-1.7-1.1l-0.2,4c-0.1,1.2,0.2,2,0.7,2.5c0.6,0.5,1.4,0.8,2.7,0.8l0,0.8l-1.1-0.1
			c-2.9-0.3-4.8-0.4-5.6-0.4c-0.8,0-2.5-0.1-5-0.1l0-0.8c0.9,0.1,1.5-0.1,1.9-0.5c0.4-0.4,0.6-1.1,0.7-2.1l1.2-19.8
			c0.1-1.2-0.1-2.1-0.4-2.7c-0.4-0.6-1-0.9-1.9-0.9l0-0.8c0.8,0.1,1.7,0.2,2.4,0.3c2.3,0.1,4.2,0.1,5.8-0.2l-0.2,3.6
			c0.6-1.2,1.5-2.1,2.6-2.6s2.4-0.8,3.8-0.8C169.6,8.9,170.8,9.3,171.8,10.1z M167.1,26.8c0.8-1.6,1.4-4.1,1.5-7.3
			c0.2-3.2,0-5.5-0.5-6.9c-0.5-1.4-1.3-2.1-2.4-2.2c-0.9-0.1-1.7,0.2-2.4,0.8c-0.7,0.6-1.3,1.4-1.6,2.5l-0.8,14.3
			c0.6,0.8,1.4,1.2,2.4,1.2C165,29.2,166.3,28.4,167.1,26.8z"/>
		<path class="st0" d="M193.5,13.9c0.5,0.8,0.6,1.7,0.4,2.7c-0.2,1-0.6,1.7-1.3,2.2c-0.7,0.5-1.5,0.7-2.4,0.5
			c-0.9-0.2-1.5-0.5-2-1.1c-0.4-0.6-0.6-1.2-0.4-2c0.2-1.2,1-2.1,2.3-2.7c-0.1,0-0.3-0.1-0.5-0.1c-0.3-0.1-0.5-0.1-0.6,0
			c-1,0-2,0.4-2.9,1.3c-0.9,0.9-1.4,1.9-1.7,3l-2,10.3c-0.2,1.2-0.1,2.1,0.4,2.7c0.5,0.6,1.4,1,2.6,1.3l-0.2,0.8
			c-0.4-0.1-0.7-0.1-0.9-0.2c-2.6-0.6-4.4-1-5.3-1.2c-0.7-0.1-2.3-0.4-4.8-0.8c-0.2,0-0.5-0.1-0.8-0.1l0.2-0.8
			c0.9,0.2,1.6,0.1,2.1-0.2c0.4-0.3,0.8-1,1-2.1l2.4-12.3c0.2-1.2,0.2-2.1,0-2.7c-0.3-0.6-0.8-1-1.8-1.2l0.2-0.8
			c0.8,0.2,1.6,0.4,2.4,0.6c2.3,0.5,4.2,0.7,5.8,0.6l-0.7,3.6c0.7-1,1.6-1.8,2.7-2.3c1.1-0.5,2.2-0.6,3.4-0.4
			C192.3,12.6,193.1,13.1,193.5,13.9z"/>
		<path class="st0" d="M210.8,21.1c1.1,2.2,1,5.1-0.2,8.6c-1.2,3.6-2.9,5.9-5.1,7c-2.2,1.1-4.7,1.1-7.6,0.2c-2.9-1-4.8-2.5-5.9-4.7
			c-1.1-2.2-1-5,0.1-8.6c1.2-3.6,2.9-5.9,5.1-7c2.2-1.1,4.7-1.2,7.6-0.2C207.8,17.3,209.8,18.9,210.8,21.1z M201.3,18.6
			c-1.2,1.4-2.3,3.6-3.4,6.8c-1.1,3.2-1.6,5.7-1.4,7.5c0.1,1.8,0.7,2.8,1.8,3.2c1.1,0.4,2.2-0.1,3.4-1.4c1.1-1.3,2.3-3.6,3.3-6.8
			c1.1-3.2,1.6-5.7,1.4-7.5c-0.1-1.8-0.7-2.8-1.8-3.2C203.6,16.7,202.4,17.2,201.3,18.6z"/>
		<path class="st0" d="M202.6,44.9c1.2,0.5,2.4,0.5,3.5-0.1c1.1-0.6,2.1-1.8,2.9-3.6l7.1-15.3c0.5-1.1,0.7-2,0.6-2.7
			c-0.1-0.7-0.6-1.2-1.4-1.6l0.3-0.8c0.7,0.4,1.5,0.8,2.2,1.1c2.1,1,3.9,1.6,5.5,1.9L216,39.5c-0.9,2-1.9,3.6-2.9,4.7
			c-1,1.1-2.2,1.9-3.5,2.3c-2,0.6-4.5,0.3-7.3-1L202.6,44.9z M226.4,15.5c0.4,0.8,0.3,1.6-0.1,2.4c-0.4,0.9-1,1.4-1.8,1.6
			c-0.8,0.2-1.7,0.1-2.7-0.4c-1-0.5-1.7-1.1-2.1-1.8c-0.4-0.8-0.3-1.6,0.1-2.4c0.4-0.9,1-1.4,1.8-1.6c0.8-0.2,1.7-0.1,2.7,0.4
			C225.3,14.1,226,14.7,226.4,15.5z"/>
		<path class="st0" d="M233.1,46.6l0.5,0.6c-1.3,1.2-2.9,2-4.7,2.3c-1.8,0.4-3.6,0-5.3-1c-2.4-1.4-3.9-3.3-4.4-5.7
			c-0.5-2.4,0.1-5.1,1.9-8.1c1.8-3.1,4-5,6.4-5.7c2.5-0.7,5-0.4,7.5,1.1c4.3,2.5,4.9,6.3,2,11.4l-9.6-5.6c-0.2,0.3-0.5,0.9-1,1.6
			c-0.9,1.5-1.4,2.9-1.6,4.1c-0.2,1.3,0,2.3,0.4,3.2c0.4,0.9,1,1.5,1.8,2C228.8,47.8,230.8,47.8,233.1,46.6z M231.4,31.1
			c-1.1,0.7-2.4,2.1-3.8,4.1l5.4,3.2c1.1-1.8,1.8-3.4,2.1-4.8c0.3-1.4,0-2.3-0.8-2.8C233.5,30.3,232.6,30.4,231.4,31.1z"/>
		<path class="st0" d="M253.4,43.4c0.6,0.7,1,1.4,1.2,2c0.3,0.8,0.4,1.5,0.3,2.3c-0.1,0.7-0.4,1.4-0.8,2c-0.6,0.7-1.3,1.2-2.1,1.3
			c-0.8,0.1-1.6-0.1-2.3-0.7c-0.7-0.6-1.2-1.2-1.3-2c-0.1-0.8,0.1-1.5,0.7-2.2c0.5-0.6,1.1-1,1.9-1.2c0.8-0.2,1.5-0.1,2.2,0.2
			c0-0.4-0.1-0.7-0.3-1.1c-0.2-0.4-0.6-0.8-1-1.1c-1.3-1-2.8-1-4.5-0.2c-1.8,0.8-3.5,2.4-5.2,4.6c-1.7,2.2-2.6,4.2-2.5,5.8
			c0,1.6,0.6,2.9,1.8,3.8c0.7,0.5,1.6,0.9,2.6,1.1c1,0.2,2.2,0,3.5-0.5l0.4,0.6c-1.5,1-3.1,1.6-4.9,1.8s-3.5-0.4-5.2-1.7
			c-2.2-1.7-3.4-3.7-3.6-6.2c-0.3-2.5,0.7-5.1,2.9-7.9c1.4-1.8,3-3.1,4.6-3.9c1.7-0.8,3.3-1,5-0.8c1.7,0.2,3.3,1,4.8,2.1
			C252.1,42,252.8,42.7,253.4,43.4z"/>
		<path class="st0" d="M263.7,53l3.4,3.2l-0.5,0.6l-3.4-3.2l-11.1,11.6c-0.5,0.6-0.8,1.1-0.9,1.5c0,0.4,0.2,0.9,0.6,1.3
			c0.8,0.8,2,0.8,3.6,0.2l0.2,0.7c-2.6,1.3-4.9,1-6.7-0.8c-1.3-1.2-1.9-2.4-1.9-3.7c0-0.8,0.2-1.5,0.6-2.3c0.4-0.7,1.2-1.6,2.2-2.7
			l9.3-9.7l-2.4-2.3l0.5-0.6l2.4,2.3l3.6-3.8c1.6,1.5,3.2,2.5,5,3L263.7,53z"/>
	</g>
	<g>
		<path class="st0" d="M291.1,151.3c-0.4,0.5-0.4,1.3-0.2,2.3l-0.9,0.2c-0.5-2.9-0.8-4.8-1-5.7c-0.2-0.8-0.6-2.5-1.3-5.3l0.9-0.2
			c0.2,0.8,0.5,1.3,1,1.5c0.5,0.2,1.3,0.2,2.5-0.1l13.3-2.8c1.2-0.3,2-0.6,2.6-1.1s0.7-1.2,0.4-2.2c-0.2-1.1-0.9-1.9-1.9-2.5
			c-1-0.6-2.2-0.8-3.5-0.7l-0.8,0.2l-11.5,2.4c-1.2,0.2-1.9,0.6-2.3,1c-0.4,0.4-0.5,1.1-0.3,2.1l-0.9,0.2c-0.5-2.8-0.8-4.6-1-5.4
			c-0.2-0.8-0.6-2.5-1.3-5.3l0.9-0.2c0.2,0.8,0.5,1.3,1,1.5c0.5,0.2,1.3,0.2,2.5-0.1l13.3-2.8c1.2-0.3,2.1-0.6,2.6-1
			c0.5-0.4,0.7-1.1,0.5-2c-0.2-1.1-0.9-2-2-2.6c-1.1-0.6-2.4-0.8-3.8-0.5l-11.9,2.5c-1.2,0.2-1.9,0.6-2.3,1c-0.4,0.4-0.5,1-0.3,1.7
			l-0.9,0.2c-0.4-2.5-0.7-4.2-0.9-5.1c-0.2-0.9-0.7-2.8-1.4-5.9l0.9-0.2c0.2,1,0.6,1.7,1.1,2c0.5,0.3,1.4,0.3,2.5,0.1l13.4-2.8
			c1.3-0.3,2.2-0.7,2.7-1.2c0.5-0.5,0.7-1.3,0.4-2.3l0.9-0.2c0.1,0.9,0.2,1.8,0.4,2.7c0.5,2.5,1.2,4.6,1.9,6.1l-3.8,0.8
			c2.9,0.7,4.7,2.6,5.4,5.8c0.5,2.2,0.2,3.8-0.7,5c-0.5,0.7-1.2,1.2-2.3,1.6c1.7,0.4,3,1.2,3.9,2.2c0.9,1.1,1.5,2.4,1.8,4
			c0.5,2.2,0.2,3.8-0.7,5c-0.4,0.6-1,1-1.9,1.4c-0.8,0.4-2,0.7-3.4,1l-11.5,2.4C292.2,150.5,291.5,150.8,291.1,151.3z"/>
		<path class="st0" d="M293,161.1c-1.2,0-2,0.3-2.4,0.7c-0.4,0.4-0.6,1.2-0.6,2.2l-0.9,0c0-2.9,0-4.8,0-5.8c0-0.9-0.2-2.9-0.4-6.1
			l0.9,0c0,1,0.3,1.8,0.7,2.2c0.5,0.4,1.3,0.6,2.5,0.5l13.7-0.4c1.3,0,2.3-0.3,2.9-0.7c0.6-0.4,0.9-1.2,0.8-2.2l0.9,0
			c-0.1,0.9-0.1,1.8,0,2.7c0.1,2.6,0.4,4.7,0.8,6.3L293,161.1z M321.8,159.6c-0.6,0.7-1.4,1.1-2.4,1.1c-1,0-1.9-0.3-2.5-1
			c-0.6-0.7-0.9-1.6-1-2.9c0-1.2,0.2-2.2,0.8-2.9c0.6-0.7,1.4-1.1,2.4-1.1c1,0,1.9,0.3,2.5,1c0.6,0.7,0.9,1.6,1,2.9
			C322.6,157.9,322.4,158.9,321.8,159.6z"/>
		<path class="st0" d="M311,176.3c-0.3,0.9-0.7,1.6-1.1,2.1c-0.2,0.3-0.3,0.5-0.4,0.8c0,0.3,0.1,0.5,0.4,0.7
			c0.3,0.2,0.7,0.4,1.2,0.5l-0.1,0.9c-1.5-0.2-4-0.5-7.6-0.7l0.1-0.9c1.9-0.1,3.6-0.6,4.9-1.4c1.4-0.8,2.1-2,2.2-3.7
			c0.1-0.9-0.1-1.6-0.6-2.2c-0.5-0.6-1.1-0.9-2-1c-1-0.1-1.9,0.2-2.6,0.8c-0.8,0.6-1.7,1.6-2.8,2.9l-1,1.2c-1.5,1.7-2.7,2.9-3.9,3.7
			c-1.1,0.8-2.4,1.1-4,1c-1.3-0.1-2.4-0.5-3.3-1.4c-0.9-0.8-1.6-1.9-2-3.1c-0.4-1.3-0.6-2.7-0.5-4.2c0.1-1.6,0.5-2.9,1.2-4
			c0.5-0.9,0.9-1.5,1.1-1.9c0.1-0.3,0-0.5-0.2-0.8c-0.3-0.2-0.7-0.4-1.2-0.6l0.1-0.9c1.6,0.2,4.5,0.5,8.7,0.8l-0.1,0.9
			c-5.4,0.2-8.2,1.9-8.4,5.3c-0.1,0.8,0.1,1.6,0.6,2.2c0.5,0.6,1.2,1,2.3,1.1c0.8,0.1,1.5-0.1,2.2-0.4c0.7-0.3,1.3-0.7,1.8-1.2
			c0.5-0.5,1.3-1.3,2.2-2.3c1.1-1.2,2.1-2.2,2.7-2.8c0.7-0.6,1.5-1.2,2.4-1.6c0.9-0.4,1.9-0.6,3-0.5c1.9,0.1,3.3,1,4.2,2.5
			c1,1.5,1.4,3.3,1.2,5.4C311.6,174.3,311.4,175.4,311,176.3z"/>
		<path class="st0" d="M307.4,198.7c-0.4,0.9-0.9,1.6-1.4,2.1c-0.6,0.6-1.3,1.1-2.1,1.4s-1.6,0.3-2.4,0.1c-1-0.2-1.7-0.7-2.3-1.5
			c-0.5-0.8-0.7-1.6-0.4-2.6c0.2-1,0.7-1.7,1.4-2.2c0.7-0.5,1.5-0.6,2.5-0.4c0.9,0.2,1.5,0.6,2,1.3c0.5,0.7,0.8,1.4,0.9,2.3
			c0.4-0.2,0.7-0.5,1-0.9c0.3-0.4,0.5-0.9,0.6-1.5c0.4-1.7-0.3-3.2-2-4.6c-1.7-1.3-4-2.3-7-3c-3-0.6-5.4-0.6-6.9,0.2
			c-1.6,0.8-2.5,2-2.9,3.6c-0.2,1-0.2,2,0.2,3.1s1,2.2,2.1,3.2l-0.4,0.7c-1.7-1-3.1-2.3-4.1-4c-1-1.7-1.3-3.7-0.8-5.9
			c0.6-2.9,2.1-5.1,4.4-6.6c2.3-1.4,5.4-1.8,9.2-1c2.5,0.5,4.5,1.4,6.1,2.7s2.6,2.8,3.2,4.6c0.6,1.8,0.6,3.7,0.2,5.7
			C308.2,196.8,307.8,197.8,307.4,198.7z"/>
		<path class="st0" d="M284.1,217.7l-0.5,0.6c-1.6-1.2-2.7-2.7-3.5-4.6c-0.7-1.9-0.7-3.8,0-5.9c1-2.9,2.8-4.9,5.3-5.9
			c2.5-1,5.5-0.9,9.1,0.4c3.7,1.3,6.2,3.3,7.5,5.8c1.3,2.5,1.4,5.3,0.3,8.4c-1.9,5.1-5.8,6.6-11.9,4.4l4.2-11.5
			c-0.4-0.2-1-0.4-1.9-0.7c-1.8-0.7-3.4-0.9-4.8-0.9c-1.4,0.1-2.5,0.4-3.3,1c-0.8,0.6-1.4,1.4-1.8,2.3
			C282,213.3,282.4,215.5,284.1,217.7z M300.6,212.8c-1-1.1-2.7-2.2-5.2-3.2l-2.3,6.4c2.1,0.8,4,1.3,5.6,1.3c1.6,0,2.5-0.4,2.9-1.4
			C301.9,214.9,301.6,213.9,300.6,212.8z"/>
		<path class="st0" d="M277.4,225.6c-1.1-0.5-1.9-0.7-2.5-0.5c-0.6,0.2-1.1,0.7-1.6,1.7l-0.8-0.4c1.4-2.7,2.4-4.4,2.7-5.2
			c0.4-0.9,1.3-2.7,2.5-5.5l0.8,0.4c-0.5,0.9-0.6,1.7-0.3,2.2c0.2,0.6,0.9,1.1,1.9,1.7l22.3,11c1.2,0.6,2.2,0.8,2.9,0.7
			c0.7-0.1,1.3-0.6,1.8-1.5l0.8,0.4c-0.5,0.8-0.9,1.6-1.3,2.4c-1.1,2.3-1.9,4.3-2.3,6L277.4,225.6z"/>
		<path class="st0" d="M271.8,235.4c-1-0.6-1.8-0.9-2.4-0.7c-0.6,0.1-1.2,0.6-1.7,1.5l-0.8-0.5c1.7-2.5,2.7-4.2,3.2-4.9
			c0.5-0.8,1.5-2.6,2.9-5.3l0.8,0.5c-0.5,0.9-0.7,1.6-0.5,2.2c0.2,0.6,0.8,1.2,1.8,1.8l21.3,12.8c1.1,0.7,2.1,1,2.8,1
			c0.7,0,1.4-0.5,1.9-1.4l0.8,0.5c-0.6,0.8-1.1,1.5-1.5,2.3c-1.3,2.2-2.2,4.1-2.8,5.8L271.8,235.4z"/>
		<path class="st0" d="M267.6,236.9c1.3-0.1,2.6,0.3,3.8,1.2c1,0.8,1.7,1.7,2,2.8c0.3,1.1,0.3,2.1,0.1,3.2c-0.2,1.1-0.6,2.3-1.1,3.9
			c-0.5,1.6-0.8,2.8-0.9,3.7s0.2,1.5,0.8,2l2.7,2.1c1,0.7,1.9,1.1,2.8,1.1c0.9,0,1.7-0.5,2.4-1.5c0.8-1.1,1.2-2.2,1.1-3.2
			c-0.7,0.5-1.5,0.7-2.2,0.7c-0.7,0-1.4-0.2-2-0.7c-0.8-0.6-1.2-1.3-1.3-2.2c-0.1-0.9,0.2-1.7,0.8-2.5c0.6-0.8,1.4-1.2,2.2-1.3
			c0.8-0.1,1.6,0.2,2.4,0.8c0.6,0.5,1.1,1.1,1.3,1.7c0.2,0.7,0.3,1.5,0.2,2.4c-0.1,0.9-0.4,1.9-0.9,3c-0.5,1.1-1.1,2.1-2,3.2
			c-0.9,1.1-1.7,2-2.6,2.7c-0.9,0.7-1.8,1-2.8,1.2c-0.9,0.1-1.8,0-2.7-0.4c-0.9-0.4-1.9-1.1-3.2-2l-9.4-7.2c-0.6-0.4-1-0.7-1.3-0.7
			c-0.3-0.1-0.6,0-0.8,0.3c-0.3,0.3-0.4,0.9-0.4,1.7l-0.9-0.1c-0.1-1.7,0.5-3.3,1.6-4.8c1-1.3,1.9-2,2.8-2.1
			c0.9-0.1,1.8,0.1,2.7,0.8c-1-2.6-0.6-5,1.1-7.2C265.1,237.8,266.3,237,267.6,236.9z M263.7,247.1l7.1,5.4
			c-0.2-0.6-0.3-1.6-0.2-2.9c0.1-1.3,0.1-2.5-0.2-3.4c-0.2-0.9-0.9-1.8-2-2.6c-0.9-0.7-1.8-1.1-2.5-1c-0.8,0-1.4,0.4-1.9,1
			C263.4,244.6,263.3,245.7,263.7,247.1z"/>
		<path class="st0" d="M255.6,280.5c-0.7-0.1-1.5-0.3-2.2-0.8c-0.7-0.5-1.6-1.3-2.6-2.4l-8.1-8.5c-0.8-0.9-1.5-1.3-2.2-1.4
			c-0.6,0-1.3,0.3-2,1l-0.6-0.7c2.2-1.9,3.6-3.2,4.3-3.8c0.6-0.6,2-1.9,4-4l0.6,0.7c-0.6,0.6-0.9,1.2-0.9,1.7
			c0.1,0.6,0.5,1.3,1.3,2.1l9.3,9.9c0.8,0.9,1.6,1.4,2.3,1.6c0.7,0.2,1.4-0.1,2.2-0.8c0.9-0.8,1.3-1.9,1.2-3.2
			c-0.1-1.3-0.6-2.4-1.6-3.5l-8.3-8.8c-0.8-0.9-1.5-1.3-2.1-1.4c-0.6-0.1-1.2,0.2-1.8,0.8l-0.6-0.7c2-1.8,3.4-2.9,4.1-3.6
			c0.6-0.6,2.1-2,4.3-4.3l0.6,0.7c-0.8,0.7-1.1,1.4-1.1,2c0,0.6,0.4,1.3,1.2,2.2l9.4,10c0.9,1,1.7,1.5,2.5,1.7
			c0.7,0.2,1.5-0.1,2.2-0.8l0.6,0.7c-0.7,0.6-1.4,1.2-2.1,1.8c-1.9,1.8-3.3,3.4-4.2,4.8l-2.7-2.9c0.9,2.9,0.1,5.5-2.4,7.9
			C258.7,279.9,257.1,280.6,255.6,280.5z"/>
		<path class="st0" d="M227.3,282.2l-0.8,0.2c-0.6-1.9-0.6-3.8-0.1-5.7c0.5-1.9,1.7-3.5,3.5-4.8c2.5-1.7,5.1-2.3,7.7-1.7
			c2.6,0.6,5,2.5,7.1,5.7c2.2,3.2,3.1,6.3,2.7,9.1c-0.4,2.8-2,5.1-4.7,6.9c-4.5,3.1-8.6,1.9-12.2-3.4l10.1-6.9
			c-0.2-0.4-0.6-1-1.1-1.7c-1.1-1.6-2.2-2.8-3.4-3.5c-1.2-0.8-2.3-1.1-3.3-1.1c-1,0-2,0.3-2.8,0.8
			C228.2,277.5,227.2,279.5,227.3,282.2z M243.5,288c-0.2-1.5-0.9-3.3-2.3-5.7l-5.7,3.9c1.2,1.9,2.5,3.4,3.8,4.3
			c1.3,1,2.3,1.1,3.2,0.6C243.4,290.4,243.7,289.4,243.5,288z"/>
		<path class="st0" d="M215.2,303.7c-2.5-0.9-4.7-3.2-6.5-6.9s-2.2-6.8-1.3-9.4c0.9-2.5,2.8-4.5,5.9-5.9c3-1.4,5.8-1.7,8.3-0.8
			c2.5,0.9,4.7,3.2,6.5,6.9c1.8,3.7,2.2,6.9,1.3,9.4c-0.9,2.5-2.8,4.5-5.8,6C220.5,304.4,217.7,304.6,215.2,303.7z M224.7,298.4
			c-0.1-2-1-4.6-2.6-8c-1.6-3.4-3.1-5.7-4.6-7c-1.4-1.3-2.7-1.7-3.9-1.1c-1.2,0.6-1.7,1.8-1.6,3.7s1,4.6,2.6,8
			c1.6,3.4,3.2,5.7,4.6,7c1.4,1.3,2.7,1.7,3.9,1.2C224.3,301.6,224.8,300.3,224.7,298.4z"/>
		<path class="st0" d="M185,297.1c-0.4-1.3-0.8-2.2-1.4-2.6c-0.6-0.5-1.4-0.6-2.3-0.3l-0.3-0.9c0.9-0.2,1.8-0.4,2.6-0.6
			c2.4-0.7,4.4-1.5,5.9-2.4l1.1,3.8c0.5-3,2.4-4.9,5.6-5.9c2.1-0.6,3.8-0.5,5,0.3c0.6,0.4,1.1,1,1.6,1.8s0.9,1.9,1.3,3.3l3.1,10.6
			c0.4,1.3,0.8,2.2,1.4,2.6c0.6,0.5,1.4,0.6,2.3,0.3l0.3,0.9c-0.9,0.2-1.8,0.4-2.6,0.6c-2.4,0.7-4.4,1.5-5.9,2.4l-5-17.3
			c-0.3-1.2-0.8-2-1.3-2.5c-0.5-0.5-1.3-0.6-2.2-0.3c-1.1,0.3-1.9,1.1-2.5,2.2s-0.6,2.4-0.2,3.8l3.2,11c0.4,1.3,0.8,2.2,1.4,2.6
			c0.6,0.5,1.4,0.6,2.3,0.3l0.3,0.9c-0.9,0.2-1.8,0.4-2.6,0.6c-2.4,0.7-4.4,1.5-5.9,2.4L185,297.1z"/>
		<path class="st0" d="M173.6,316.9c-1-0.2-1.7-0.4-2.2-0.7c-0.3-0.2-0.6-0.2-0.8-0.2c-0.3,0-0.5,0.2-0.6,0.5
			c-0.2,0.3-0.2,0.7-0.2,1.2l-0.9,0.1c-0.1-1.5-0.4-4-0.8-7.6l0.9-0.1c0.5,1.9,1.3,3.4,2.3,4.6c1,1.2,2.4,1.6,4.1,1.4
			c0.9-0.1,1.5-0.5,2-1s0.7-1.3,0.6-2.1c-0.1-1-0.6-1.8-1.3-2.4c-0.8-0.6-1.9-1.3-3.5-2.2l-1.4-0.7c-1.9-1.1-3.4-2.1-4.4-3
			c-1-0.9-1.6-2.2-1.8-3.7c-0.2-1.3,0.1-2.4,0.7-3.5c0.6-1.1,1.5-2,2.7-2.6c1.2-0.7,2.5-1.1,4-1.3c1.6-0.2,3-0.1,4.2,0.4
			c1,0.3,1.7,0.6,2.1,0.6c0.3,0,0.5-0.1,0.7-0.4c0.2-0.3,0.3-0.7,0.3-1.3l0.9-0.1c0.1,1.7,0.4,4.5,1,8.7l-0.9,0.1
			c-1.3-5.2-3.6-7.6-6.9-7.2c-0.8,0.1-1.5,0.5-2,1c-0.5,0.6-0.7,1.4-0.6,2.4c0.1,0.8,0.4,1.5,0.8,2.1s1,1.1,1.6,1.5s1.5,1,2.7,1.7
			c1.4,0.9,2.5,1.6,3.3,2.1c0.8,0.5,1.4,1.2,2,2c0.6,0.8,1,1.7,1.1,2.8c0.2,1.8-0.3,3.4-1.6,4.7c-1.3,1.3-3,2-5.1,2.3
			C175.6,317.1,174.6,317.1,173.6,316.9z"/>
	</g>
	<g>
		<path class="st0" d="M41.6,62.3c1-0.1,1.9,0.1,2.8,0.9c0.9,0.7,1.3,1.6,1.4,2.6c0,1-0.3,1.9-1.1,2.9c-0.8,1-1.7,1.5-2.6,1.7
			c-1,0.1-1.9-0.1-2.8-0.9c-0.9-0.7-1.3-1.6-1.4-2.6c0-1,0.3-1.9,1.1-2.9C39.8,63,40.7,62.4,41.6,62.3z"/>
	</g>
	<g>
		<path class="st0" d="M287.6,88.1c-0.2,1-0.8,1.7-1.8,2.3c-1,0.6-1.9,0.7-2.9,0.4c-0.9-0.3-1.7-1-2.3-2.1s-0.8-2.1-0.6-3
			c0.2-1,0.8-1.7,1.8-2.3c1-0.6,1.9-0.7,2.9-0.4c0.9,0.3,1.7,1,2.3,2.1C287.6,86.1,287.8,87.1,287.6,88.1z"/>
	</g>
	<g>
		<path class="st0" d="M127.2,306.4c-0.6-0.8-0.8-1.7-0.6-2.8s0.7-1.9,1.5-2.5c0.8-0.5,1.9-0.7,3.1-0.5c1.2,0.2,2.1,0.7,2.7,1.5
			c0.6,0.8,0.8,1.7,0.6,2.8c-0.2,1.1-0.7,1.9-1.5,2.5c-0.8,0.5-1.9,0.7-3.1,0.5C128.7,307.6,127.8,307.1,127.2,306.4z"/>
	</g>
	<g>
		<path class="st0" d="M100.4,284.5c0.4,1.3,0.2,2.6-0.6,4c-0.6,1.2-1.4,1.9-2.4,2.4c-1,0.4-2,0.6-3.1,0.6c-1.1,0-2.4-0.2-4-0.5
			c-1.7-0.3-2.9-0.4-3.8-0.3c-0.9,0-1.5,0.4-1.9,1.1l-1.6,3c-0.6,1.1-0.8,2-0.6,2.9c0.2,0.9,0.8,1.6,1.8,2.1
			c1.2,0.7,2.3,0.9,3.3,0.6c-0.6-0.6-0.9-1.3-1.1-2c-0.1-0.7,0-1.4,0.4-2.1c0.5-0.9,1.1-1.4,2-1.6c0.9-0.2,1.7-0.1,2.6,0.4
			c0.9,0.5,1.4,1.1,1.6,2c0.2,0.8,0.1,1.7-0.4,2.5c-0.4,0.7-0.9,1.2-1.5,1.5c-0.6,0.3-1.4,0.5-2.3,0.5c-0.9,0-1.9-0.1-3.1-0.4
			c-1.1-0.3-2.3-0.8-3.5-1.4c-1.3-0.7-2.3-1.4-3.1-2.1c-0.8-0.8-1.3-1.6-1.6-2.5c-0.3-0.9-0.3-1.8,0-2.7c0.2-0.9,0.7-2.1,1.5-3.5
			l5.6-10.5c0.3-0.6,0.5-1.1,0.5-1.4c0-0.3-0.1-0.6-0.5-0.7c-0.4-0.2-1-0.2-1.7-0.1l0-0.9c1.7-0.3,3.3-0.1,5,0.8
			c1.4,0.8,2.2,1.6,2.5,2.4c0.3,0.9,0.2,1.8-0.3,2.7c2.4-1.4,4.8-1.4,7.3-0.1C99.1,282.2,100.1,283.2,100.4,284.5z M89.7,282.3
			l-4.2,7.9c0.6-0.3,1.5-0.6,2.9-0.6c1.3-0.1,2.4-0.3,3.3-0.7c0.9-0.4,1.6-1.2,2.3-2.4c0.6-1.1,0.8-1.9,0.6-2.7s-0.6-1.3-1.3-1.7
			C92.1,281.6,91,281.7,89.7,282.3z"/>
		<path class="st0" d="M62.4,286.6c-0.6-0.8-1-1.4-1.2-2c-0.1-0.3-0.3-0.6-0.5-0.7c-0.2-0.2-0.5-0.2-0.8-0.1c-0.3,0.1-0.6,0.4-1,0.8
			l-0.7-0.5c1-1.1,2.5-3.2,4.7-6.1l0.7,0.5c-0.9,1.7-1.4,3.3-1.4,4.9c0,1.6,0.6,2.8,2,3.8c0.7,0.5,1.4,0.7,2.2,0.7
			c0.7-0.1,1.4-0.5,1.9-1.2c0.6-0.8,0.8-1.7,0.7-2.7c-0.1-1-0.5-2.3-1-3.9l-0.5-1.5c-0.6-2.1-1-3.9-1.1-5.2
			c-0.1-1.3,0.4-2.6,1.3-3.9c0.8-1,1.7-1.7,2.9-2.1c1.2-0.4,2.4-0.4,3.8-0.1c1.3,0.3,2.6,0.9,3.8,1.8c1.3,0.9,2.2,2,2.8,3.2
			c0.5,0.9,0.8,1.6,1.1,1.9c0.2,0.2,0.4,0.3,0.8,0.2c0.3-0.1,0.7-0.3,1.1-0.7l0.7,0.5c-1.1,1.3-2.8,3.6-5.3,7l-0.7-0.5
			c2.7-4.7,2.7-8,0-10c-0.7-0.5-1.4-0.7-2.2-0.7c-0.8,0.1-1.5,0.5-2.1,1.4c-0.5,0.7-0.8,1.4-0.8,2.1c-0.1,0.7,0,1.5,0.1,2.2
			c0.2,0.7,0.4,1.8,0.8,3.1c0.4,1.6,0.8,2.9,0.9,3.8c0.2,0.9,0.2,1.9,0.1,2.9c-0.1,1-0.5,1.9-1.1,2.8c-1.1,1.5-2.5,2.3-4.4,2.3
			c-1.8,0-3.6-0.6-5.3-1.8C63.7,288.1,63,287.4,62.4,286.6z"/>
		<path class="st0" d="M47.3,273.6c-0.5-0.8-0.8-1.6-0.9-2.1c-0.1-0.3-0.2-0.6-0.4-0.8c-0.2-0.2-0.4-0.2-0.8-0.2
			c-0.3,0.1-0.7,0.3-1.1,0.6l-0.7-0.6c1.1-1,2.9-2.8,5.4-5.5l0.7,0.6c-1.1,1.6-1.8,3.1-2.1,4.7c-0.2,1.5,0.2,2.9,1.5,4.1
			c0.6,0.6,1.3,0.9,2.1,0.9c0.8,0,1.4-0.3,2-0.9c0.7-0.7,1-1.6,1-2.5c0-1-0.2-2.3-0.5-4l-0.3-1.5c-0.4-2.2-0.5-4-0.4-5.3
			c0.1-1.3,0.7-2.6,1.8-3.7c0.9-0.9,1.9-1.5,3.1-1.7s2.5-0.1,3.7,0.4c1.3,0.5,2.5,1.2,3.6,2.3c1.2,1.1,1.9,2.3,2.4,3.5
			c0.4,1,0.6,1.7,0.8,2c0.2,0.3,0.4,0.4,0.8,0.3c0.3-0.1,0.8-0.2,1.2-0.6l0.7,0.6c-1.2,1.1-3.3,3.2-6.1,6.2l-0.7-0.6
			c3.3-4.3,3.7-7.6,1.2-9.9c-0.6-0.6-1.3-0.9-2.1-0.9c-0.8,0-1.5,0.3-2.3,1.1c-0.6,0.6-0.9,1.2-1.1,2c-0.2,0.7-0.2,1.4-0.2,2.2
			c0.1,0.7,0.2,1.8,0.4,3.2c0.2,1.7,0.4,3,0.4,3.9s0,1.9-0.3,2.8c-0.3,1-0.7,1.8-1.5,2.6c-1.3,1.4-2.8,1.9-4.6,1.7
			c-1.8-0.2-3.5-1-5-2.5C48.4,275.3,47.8,274.5,47.3,273.6z"/>
		<path class="st0" d="M28.5,268.2c0-0.9,0.4-1.7,1.2-2.4c0.8-0.7,1.6-0.9,2.6-0.8c0.9,0.2,1.8,0.7,2.6,1.6c0.8,0.9,1.2,1.9,1.2,2.8
			c0,0.9-0.4,1.7-1.2,2.4c-0.8,0.7-1.6,0.9-2.6,0.8c-0.9-0.2-1.8-0.7-2.6-1.6C28.9,270,28.5,269.1,28.5,268.2z M50,249
			c0.9-0.8,1.4-1.5,1.5-2.1c0.1-0.6-0.2-1.3-0.9-2.1l0.7-0.6c1.8,2.3,3,3.8,3.7,4.5c0.6,0.7,2,2.2,4.1,4.5l-0.7,0.6
			c-0.7-0.8-1.3-1.2-1.9-1.2c-0.6,0-1.4,0.4-2.3,1.1l-10.4,9c-1,0.9-1.6,1.7-1.8,2.4s0,1.5,0.7,2.3l-0.7,0.6
			c-0.5-0.8-1.1-1.5-1.7-2.1c-1.7-2-3.2-3.4-4.6-4.4L50,249z"/>
		<path class="st0" d="M25.3,239.9c-0.1,0.6-0.5,1-1.1,1.4c-0.6,0.4-1.3,0.6-2.1,0.8c0.6,0.4,1.2,0.7,1.8,0.9
			c0.6,0.2,1.1,0.2,1.8,0.2c0.4-1.3,1.3-2.5,2.7-3.5c1.9-1.3,3.8-1.6,5.6-0.9c1.8,0.7,3.5,2.1,5,4.3l0.4,0.7
			c1.2,0.6,2.2,0.7,2.9,0.2c0.8-0.5,0.8-1.3,0.2-2.2l-2.6-3.9c-1.4-2.1-2.2-4.1-2.2-5.9c-0.1-1.8,0.7-3.2,2.3-4.3
			c1.2-0.8,2.6-1.2,4.1-1.1c1.5,0.1,3.1,0.8,4.8,2c1.7,1.2,3.3,2.9,4.8,5.3c1.6,2.3,2.5,4.4,2.9,6.2c0.4,1.8,0,3.1-1.1,3.8
			c-0.7,0.5-1.6,0.6-2.7,0.3c-1-0.3-2.2-1-3.4-2.1l0.4-0.7c1.3,0.4,2.4,0.3,3.4-0.4c1-0.7,1.5-1.7,1.4-2.9c-0.1-1.3-0.7-2.7-1.7-4.4
			c-1.1-1.7-2.4-2.8-3.8-3.4c-1.4-0.6-2.7-0.5-3.9,0.3c-0.8,0.5-1.2,1.3-1.3,2.2c-0.1,0.9,0.4,2.1,1.4,3.6l1.5,2.2
			c1,1.5,1.6,2.9,1.7,4.1c0.1,1.2-0.4,2.2-1.5,2.9c-0.9,0.6-1.9,0.8-3,0.7c-1.1-0.2-2.4-0.7-3.9-1.5c0.9,1.9,1.3,3.6,1,5.3
			s-1.2,3-2.9,4.1c-1.9,1.3-3.8,1.6-5.6,0.9c-1.8-0.7-3.5-2.1-5-4.3c-1.6-2.4-2.3-4.6-2-6.7c-1,0-1.9-0.2-2.7-0.7
			c-0.8-0.4-1.5-1-2-1.7c-0.5-0.7-0.7-1.4-0.5-2.1c0.1-0.7,0.5-1.3,1.2-1.7c0.7-0.5,1.3-0.6,2-0.5c0.6,0.1,1.1,0.4,1.4,0.9
			C25.3,238.9,25.4,239.4,25.3,239.9z M36.2,242.8c-1,0.2-2.4,0.9-4.3,2.1c-1.9,1.2-3.1,2.3-3.6,3.2c-0.5,0.9-0.6,1.6-0.1,2.3
			c0.5,0.7,1.2,0.9,2.2,0.8c1-0.2,2.4-0.9,4.3-2.1c1.9-1.2,3.1-2.3,3.6-3.2c0.5-0.9,0.6-1.6,0.1-2.3S37.2,242.6,36.2,242.8z"/>
		<path class="st0" d="M11.8,217.9c0.3-0.7,0.8-1.3,1.5-1.8c0.7-0.5,1.7-1.1,3.1-1.7l10.7-4.8c1.1-0.5,1.7-1,2-1.6
			c0.2-0.6,0.1-1.3-0.3-2.2l0.8-0.4c1.1,2.7,1.8,4.5,2.2,5.3c0.4,0.8,1.2,2.5,2.5,5.1l-0.8,0.4c-0.4-0.8-0.8-1.3-1.4-1.4
			c-0.6-0.1-1.4,0-2.5,0.5l-12.4,5.6c-1.1,0.5-1.8,1-2.2,1.6s-0.4,1.4,0,2.3c0.5,1.1,1.4,1.8,2.6,2.2c1.2,0.4,2.5,0.3,3.8-0.3
			l11.1-5c1.1-0.5,1.8-1,2-1.5c0.3-0.5,0.2-1.2-0.1-1.9l0.8-0.4c1,2.5,1.7,4.2,2.1,5c0.4,0.8,1.2,2.6,2.6,5.4l-0.8,0.4
			c-0.4-1-0.9-1.5-1.5-1.7c-0.6-0.2-1.4,0-2.5,0.5L22.6,233c-1.2,0.6-2,1.1-2.4,1.8c-0.4,0.6-0.4,1.4,0.1,2.4l-0.8,0.4
			c-0.3-0.9-0.6-1.7-1-2.5c-1.1-2.4-2.1-4.2-3.2-5.6l3.6-1.6c-3-0.1-5.2-1.7-6.6-4.9C11.3,220.9,11.1,219.2,11.8,217.9z"/>
		<path class="st0" d="M20.9,172.8c0.4-0.5,0.4-1.3,0.2-2.3l0.9-0.2c0.5,2.9,0.8,4.8,1,5.7c0.2,0.8,0.6,2.6,1.3,5.3l-0.9,0.2
			c-0.2-0.8-0.5-1.3-1-1.5c-0.5-0.2-1.3-0.2-2.5,0.1l-13.3,2.7c-1.2,0.2-2,0.6-2.6,1.1c-0.5,0.5-0.7,1.2-0.5,2.2
			c0.2,1.1,0.8,1.9,1.9,2.5c1,0.6,2.2,0.8,3.5,0.7l0.8-0.2l11.5-2.4c1.2-0.2,1.9-0.6,2.3-1c0.4-0.4,0.5-1.1,0.3-2.1l0.9-0.2
			c0.4,2.8,0.8,4.6,0.9,5.4c0.2,0.8,0.6,2.6,1.3,5.3l-0.9,0.2c-0.2-0.8-0.5-1.3-1-1.5c-0.5-0.2-1.3-0.2-2.5,0l-13.3,2.7
			c-1.2,0.2-2.1,0.6-2.6,1c-0.5,0.4-0.7,1.1-0.5,2c0.2,1.1,0.9,2,2,2.6c1.1,0.6,2.4,0.8,3.8,0.5l11.9-2.4c1.2-0.2,1.9-0.6,2.3-0.9
			c0.4-0.4,0.5-1,0.3-1.7l0.9-0.2c0.4,2.5,0.7,4.2,0.9,5.1c0.2,0.9,0.6,2.8,1.4,5.9l-0.9,0.2c-0.2-1-0.6-1.7-1.1-2
			c-0.5-0.3-1.4-0.3-2.5-0.1l-13.5,2.8c-1.3,0.3-2.2,0.7-2.7,1.2c-0.5,0.5-0.7,1.3-0.5,2.3L7.6,212c-0.1-0.9-0.2-1.8-0.4-2.7
			c-0.5-2.5-1.1-4.6-1.9-6.1l3.8-0.8c-2.9-0.7-4.7-2.6-5.3-5.8c-0.4-2.2-0.2-3.8,0.7-5c0.5-0.7,1.2-1.2,2.3-1.6
			c-1.7-0.4-3-1.2-3.9-2.2c-0.9-1.1-1.5-2.4-1.8-4c-0.4-2.2-0.2-3.8,0.7-5c0.4-0.6,1.1-1,1.9-1.4c0.8-0.4,2-0.7,3.4-1l11.5-2.4
			C19.8,173.6,20.5,173.3,20.9,172.8z"/>
		<path class="st0" d="M16.7,153.6l0.3-0.8c1.9,0.6,3.5,1.6,4.8,3.1c1.3,1.5,2,3.4,2,5.6c0,3.1-1,5.5-2.9,7.4
			c-2,1.8-4.9,2.7-8.7,2.7c-3.9,0-6.9-1-9-2.9C1,166.8,0,164.2,0,161c0-5.5,3.2-8.2,9.7-8.2l0,12.3c0.4,0,1.1,0,2.1,0
			c1.9,0,3.5-0.3,4.8-0.8c1.3-0.5,2.2-1.2,2.8-2.1c0.6-0.9,0.9-1.8,0.9-2.8C20.2,157,19,155.1,16.7,153.6z M2.9,163.8
			c1.3,0.7,3.3,1.1,6,1.3l0-6.8c-2.3-0.1-4.2,0.2-5.7,0.7c-1.5,0.5-2.2,1.3-2.2,2.3C0.9,162.3,1.6,163.1,2.9,163.8z"/>
		<path class="st0" d="M4.9,129.7c0.6-0.4,1.4-0.6,2.3-0.7c0.9-0.1,2.1,0,3.5,0.2l11.6,1.8c1.2,0.2,2,0.1,2.5-0.2c0.5-0.3,0.8-1,1-2
			l0.9,0.1c-0.6,2.9-0.9,4.7-1.1,5.7c-0.1,0.9-0.4,2.7-0.7,5.6l-0.9-0.1c0.1-0.9,0-1.5-0.4-1.9c-0.4-0.4-1.2-0.7-2.4-0.9l-13.4-2.1
			c-1.2-0.2-2.1-0.1-2.8,0.2c-0.7,0.3-1.1,0.9-1.2,1.9c-0.2,1.2,0.1,2.3,1,3.2c0.8,1,2,1.6,3.4,1.8l12,1.9c1.2,0.2,2,0.1,2.5-0.1
			c0.5-0.3,0.8-0.8,1-1.7l0.9,0.1c-0.5,2.6-0.9,4.4-1,5.3c-0.1,0.9-0.4,2.9-0.8,6l-0.9-0.1c0.2-1,0.1-1.8-0.3-2.3s-1.2-0.8-2.3-1
			l-13.6-2.1c-1.3-0.2-2.3-0.2-3,0.2c-0.7,0.3-1.1,1-1.2,2l-0.9-0.1c0.2-0.9,0.4-1.8,0.5-2.7c0.4-2.6,0.5-4.7,0.4-6.4l3.9,0.6
			c-2.5-1.7-3.4-4.3-2.9-7.7C2.8,132,3.6,130.5,4.9,129.7z"/>
		<path class="st0" d="M7.8,115.5l1.5-4.9l0.8,0.2l-1.5,4.9l16.9,5c0.8,0.2,1.5,0.3,1.9,0.1c0.4-0.2,0.7-0.6,0.9-1.2
			c0.4-1.2-0.2-2.4-1.7-3.6l0.6-0.6c2.6,1.9,3.4,4.3,2.6,7c-0.5,1.8-1.4,3.1-2.7,3.8c-0.8,0.4-1.6,0.6-2.5,0.5
			c-0.9-0.1-2.2-0.3-3.7-0.8l-14.1-4.2l-1,3.5l-0.8-0.2l1-3.5l-5.5-1.6c0.7-2.3,0.8-4.5,0.5-6.4L7.8,115.5z"/>
		<path class="st0" d="M13.8,98.9c0.6-0.7,1.2-1.3,1.7-1.6c0.3-0.2,0.5-0.4,0.6-0.6c0.1-0.2,0.1-0.5-0.1-0.8c-0.2-0.3-0.5-0.6-1-0.8
			l0.4-0.8c1.3,0.7,3.7,1.7,7,3.2L22,98.3c-1.9-0.5-3.6-0.6-5.1-0.3c-1.5,0.3-2.6,1.2-3.3,2.8c-0.3,0.8-0.4,1.6-0.2,2.3
			c0.2,0.7,0.8,1.2,1.6,1.6c0.9,0.4,1.8,0.4,2.7,0.1c0.9-0.3,2.1-1,3.6-1.9l1.3-0.8c1.9-1.1,3.5-1.8,4.8-2.2
			c1.3-0.4,2.7-0.2,4.1,0.4c1.2,0.5,2.1,1.3,2.7,2.4c0.6,1.1,0.9,2.3,0.9,3.6c0,1.4-0.3,2.7-0.9,4.1c-0.6,1.5-1.4,2.6-2.4,3.4
			c-0.8,0.7-1.3,1.2-1.6,1.5c-0.2,0.2-0.2,0.5,0,0.8c0.2,0.3,0.5,0.6,0.9,0.9l-0.4,0.8c-1.5-0.8-4.1-1.9-8-3.6l0.4-0.8
			c5.2,1.6,8.4,0.8,9.7-2.3c0.3-0.8,0.4-1.5,0.1-2.3c-0.2-0.7-0.8-1.3-1.8-1.7c-0.7-0.3-1.5-0.4-2.2-0.4c-0.7,0.1-1.4,0.3-2.1,0.6
			c-0.7,0.3-1.6,0.8-2.9,1.5c-1.5,0.8-2.6,1.4-3.5,1.8c-0.9,0.4-1.8,0.6-2.8,0.7c-1,0.1-2-0.1-3-0.5c-1.7-0.7-2.8-2-3.2-3.7
			c-0.4-1.8-0.2-3.6,0.6-5.5C12.7,100.5,13.2,99.7,13.8,98.9z"/>
	</g>
</g>
</svg>
